<?xml version="1.0" encoding="utf-8"?>
<svg version="1.1" id="Layer_1" xmlns="http://www.w3.org/2000/svg" xmlns:xlink="http://www.w3.org/1999/xlink" x="0px" y="0px"
	 viewBox="0 0 30 30" style="enable-background:new 0 0 30 30;" xml:space="preserve">
<style type="text/css">
	.st0{fill:#FFFFFF;}
</style>
<g id="Layer_1_1_">
	<path class="st0" d="M20.3,18.3c-0.3,0-0.5-0.1-0.7-0.3c-0.4-0.4-0.4-1,0-1.4l3.8-3.8c1.6-1.6,1.6-4.1,0-5.7s-4.1-1.6-5.7,0
		l-3.8,3.8c-0.4,0.4-1,0.4-1.4,0s-0.4-1,0-1.4l3.8-3.8c2.3-2.3,6.1-2.3,8.5,0s2.3,6.1,0,8.5L21,18C20.8,18.2,20.5,18.3,20.3,18.3z"
		/>
	<path class="st0" d="M9.4,27.1c-1.5,0-3.1-0.6-4.2-1.8c-2.3-2.3-2.3-6.1,0-8.5L9,13c0.4-0.4,1-0.4,1.4,0s0.4,1,0,1.4l-3.8,3.8
		c-1.6,1.6-1.6,4.1,0,5.7c1.6,1.6,4.1,1.6,5.7,0l3.8-3.8c0.4-0.4,1-0.4,1.4,0s0.4,1,0,1.4l-3.8,3.8C12.5,26.5,11,27.1,9.4,27.1z"/>
	<path class="st0" d="M11.5,20.1c-0.3,0-0.5-0.1-0.7-0.3c-0.4-0.4-0.4-1,0-1.4l7-7c0.4-0.4,1-0.4,1.4,0s0.4,1,0,1.4l-7,7
		C12,20,11.7,20.1,11.5,20.1z"/>
</g>
</svg>
