<?xml version="1.0" encoding="utf-8"?>
<svg version="1.1" id="Layer_1" xmlns="http://www.w3.org/2000/svg" xmlns:xlink="http://www.w3.org/1999/xlink" x="0px" y="0px"
	 viewBox="0 0 28 31" style="enable-background:new 0 0 28 31;" xml:space="preserve">
<style type="text/css">
	.st0{fill:#4D4D4D;}
</style>
<g>
	<path class="st0" d="M4.1,3.8h19.5c0.4,0,0.8-0.4,0.8-0.9S24,2,23.5,2h-6.1c0-0.9-0.8-1.7-1.8-1.8h-3.5c-1,0-1.8,0.8-1.8,1.8H4.1
		C3.7,2,3.2,2.4,3.2,2.9S3.6,3.8,4.1,3.8z"/>
	<path class="st0" d="M26.2,6.4h-2.6c-0.1,0-0.2,0-0.4,0H1.5C1,6.4,0.6,6.8,0.6,7.3S1,8.2,1.5,8.2h1.9l3.5,22.1h13.9l3.4-22.1h2
		c0.5,0,0.9-0.4,0.9-0.9S26.7,6.4,26.2,6.4z M15.6,8.2l-0.8,20.2H13L12,8.2H15.6z M5.2,8.2h5.2l0.8,20.2H8.4L5.2,8.2z M19.2,28.4
		h-2.8l0.8-20.2h5.2L19.2,28.4z"/>
</g>
</svg>
