<?xml version="1.0" encoding="utf-8"?>
<svg version="1.1" id="Layer_1" xmlns="http://www.w3.org/2000/svg" xmlns:xlink="http://www.w3.org/1999/xlink" x="0px" y="0px"
	 viewBox="0 0 30 30" style="enable-background:new 0 0 30 30;" xml:space="preserve">
<style type="text/css">
	.st0{fill:#CD3542;}
</style>
<g id="Layer_1_1_">
	<path class="st0" d="M14.8,19.5h-0.5c-1,0-1.8-0.7-2-1.7l-1.4-10c-0.2-1.2,0.8-2.3,2-2.3h3.4c1.2,0,2.2,1.1,2,2.3l-1.4,10
		C16.6,18.8,15.8,19.5,14.8,19.5z"/>
	<path class="st0" d="M14.5,25.5L14.5,25.5c-1.1,0-2-0.9-2-2l0,0c0-1.1,0.9-2,2-2l0,0c1.1,0,2,0.9,2,2l0,0
		C16.5,24.6,15.6,25.5,14.5,25.5z"/>
</g>
</svg>
