<?xml version="1.0" encoding="utf-8"?>
<svg version="1.1" id="Layer_1" xmlns="http://www.w3.org/2000/svg" xmlns:xlink="http://www.w3.org/1999/xlink" x="0px" y="0px"
	 viewBox="0 0 60 60" style="enable-background:new 0 0 60 60;" xml:space="preserve">
<g id="Layer_1_1_">
	<g>
		<g>
			<rect x="9" y="9" class="st-transp" width="50" height="50"/>
			<path class="st1" d="M58,10v48H10V10H58 M60,8h-2H10H8v2v48v2h2h48h2v-2V10V8L60,8z"/>
		</g>
		<g>
			<rect x="5" y="5" class="st-transp" width="50" height="50"/>
			<path class="st1" d="M54,6v48H6V6H54 M56,4h-2H6H4v2v48v2h2h48h2v-2V6V4L56,4z"/>
		</g>
		<g>
			<rect x="1" y="1" class="st-transp" width="50" height="50"/>
			<path class="st1" d="M50,2v48H2V2H50 M52,0h-2H2H0v2v48v2h2h48h2v-2V2V0L52,0z"/>
		</g>
		<polygon class="st1" points="16.4,12.1 16.4,39.9 40.3,26 		"/>
	</g>
</g>
</svg>
