<?xml version="1.0" encoding="utf-8"?>
<!-- Generator: Adobe Illustrator 24.2.1, SVG Export Plug-In . SVG Version: 6.00 Build 0)  -->
<svg version="1.1" id="Layer_1" xmlns="http://www.w3.org/2000/svg" xmlns:xlink="http://www.w3.org/1999/xlink" x="0px" y="0px"
	 viewBox="0 0 36 36" style="enable-background:new 0 0 36 36;" xml:space="preserve">
<style type="text/css">
	.st0{fill:#808080;}
</style>
<g>
	<path class="st0" d="M34.8,17.2l-16-16c-0.4-0.4-1.1-0.4-1.5,0l-16,16c-0.4,0.4-0.4,1.1,0,1.5l16,16c0.2,0.2,0.5,0.3,0.8,0.3
		s0.5-0.1,0.8-0.3l16-16C35.2,18.3,35.2,17.7,34.8,17.2z M18,32.5L3.5,18L18,3.5L32.5,18L18,32.5z"/>
	<path class="st0" d="M17.6,9.1c0,3.5,0,7.1,0,10.6c0,0.5-0.1,0.6-0.6,0.4c-1.7-0.6-3.8,0.3-4.7,2c-0.4,0.8-0.2,2.3,0.4,2.9
		c1.1,1.2,2.6,1.6,4.1,1.1c1.3-0.5,2.4-1.8,2.4-3.5c-0.1-3.2,0-6.4,0-9.7c0-0.7,0-1.3,0-2c0.1,0,0.2,0,0.2,0
		c1.7,1.5,3.5,2.9,4.8,4.8c0.2,0.3,0.5,0.5,0.9,0.4c0.6-0.2,0.8-0.7,0.4-1.3c-0.6-1-1.4-2-2.3-2.8c-1.4-1.2-2.8-2.5-4.1-3.7
		c-0.3-0.3-0.6-0.4-1-0.2C17.8,8.5,17.6,8.7,17.6,9.1z"/>
</g>
</svg>
