<?xml version="1.0" encoding="utf-8"?>
<!-- Generator: Adobe Illustrator 24.2.1, SVG Export Plug-In . SVG Version: 6.00 Build 0)  -->
<svg version="1.1" id="Layer_1" xmlns="http://www.w3.org/2000/svg" xmlns:xlink="http://www.w3.org/1999/xlink" x="0px" y="0px"
	 viewBox="0 0 36 36" style="enable-background:new 0 0 36 36;" xml:space="preserve">
<style type="text/css">
	.st0{fill:#808080;}
</style>
<g>
	<path class="st0" d="M11.9,14.8c0,2.8,1.9,5.1,4.4,5.8c0,0-0.1,0-0.1,0l1.6,2.4l1.6-2.4c2.6-0.7,4.5-3,4.5-5.8c0-3.3-2.7-6-6-6
		S11.9,11.5,11.9,14.8z"/>
	<path class="st0" d="M34.8,17.2l-16-16c-0.4-0.4-1.1-0.4-1.5,0l-16,16c-0.4,0.4-0.4,1.1,0,1.5l16,16c0.2,0.2,0.5,0.3,0.8,0.3
		s0.5-0.1,0.8-0.3l16-16C35.2,18.3,35.2,17.7,34.8,17.2z M24.7,25.8c-0.5-2.3-2.1-4.1-4.3-5l-2.2,3.3c-0.1,0.1-0.2,0.2-0.4,0.2
		c0,0,0,0,0,0c-0.2,0-0.3-0.1-0.4-0.2l-2.2-3.2c-2,0.8-3.5,2.6-4.1,4.7L3.5,18L18,3.5L32.5,18L24.7,25.8z"/>
</g>
</svg>
