<?xml version="1.0" encoding="utf-8"?>
<!-- Generator: Adobe Illustrator 24.0.0, SVG Export Plug-In . SVG Version: 6.00 Build 0)  -->
<svg version="1.1" id="Layer_1" xmlns="http://www.w3.org/2000/svg" xmlns:xlink="http://www.w3.org/1999/xlink" x="0px" y="0px"
	 viewBox="0 0 36 36" style="enable-background:new 0 0 36 36;" xml:space="preserve">
<style type="text/css">
	.st0{fill:#FFFFFF;}
</style>
<g id="Layer_1_1_">
	<path class="st0" d="M18,4c7.7,0,14,6.3,14,14s-6.3,14-14,14S4,25.7,4,18S10.3,4,18,4 M18,2C9.2,2,2,9.2,2,18s7.2,16,16,16
		s16-7.2,16-16S26.8,2,18,2L18,2z"/>
	<path class="st0" d="M18,4c4.1,0,7.6,6.4,7.6,14S22.1,32,18,32s-7.6-6.4-7.6-14S13.9,4,18,4 M18,2c-5.3,0-9.6,7.2-9.6,16
		s4.3,16,9.6,16s9.6-7.2,9.6-16S23.3,2,18,2L18,2z"/>
	<rect x="16.9" y="2.3" class="st0" width="2" height="30.9"/>
	<rect x="2.9" y="17.3" class="st0" width="31" height="2"/>
</g>
</svg>
