<?xml version="1.0" encoding="utf-8"?>
<!-- Generator: Adobe Illustrator 24.1.2, SVG Export Plug-In . SVG Version: 6.00 Build 0)  -->
<svg version="1.1" id="Layer_1" xmlns="http://www.w3.org/2000/svg" xmlns:xlink="http://www.w3.org/1999/xlink" x="0px" y="0px"
	 viewBox="0 0 36 36" style="enable-background:new 0 0 36 36;" xml:space="preserve">
<style type="text/css">
	.st0{fill:#FFFFFF;}
</style>
<g id="Layer_1_1_">
	<path class="st0" d="M18,4c7.7,0,14,6.3,14,14s-6.3,14-14,14S4,25.7,4,18S10.3,4,18,4 M18,2C9.2,2,2,9.2,2,18s7.2,16,16,16
		s16-7.2,16-16S26.8,2,18,2L18,2z"/>
</g>
<g id="Layer_1_2_">
	<path class="st0" d="M24.9,24.1c-0.3,0.5-0.8,0.5-1.3,0.3c-3.4-2.1-7.7-2.5-12.7-1.4c-0.5,0.1-1-0.2-1.1-0.7
		c-0.1-0.5,0.2-1,0.7-1.1c5.5-1.3,10.2-0.7,14,1.6C25,23.2,25.1,23.8,24.9,24.1z M26.6,20.2c-0.4,0.5-1,0.7-1.5,0.4
		c-3.9-2.3-9.7-3.1-14.3-1.7c-0.6,0.2-1.3-0.2-1.4-0.7c-0.2-0.6,0.2-1.3,0.7-1.4c5.2-1.6,11.7-0.8,16.2,1.9
		C26.8,19,27,19.7,26.6,20.2L26.6,20.2z M26.8,16.2c-4.7-2.8-12.4-3-16.8-1.7c-0.7,0.2-1.4-0.2-1.7-0.9c-0.2-0.7,0.2-1.4,0.9-1.7
		c5.1-1.5,13.5-1.3,19,1.9c0.6,0.4,0.8,1.2,0.5,1.9C28.2,16.3,27.4,16.5,26.8,16.2L26.8,16.2z"/>
</g>
</svg>
