<?xml version="1.0" encoding="utf-8"?>
<svg version="1.1" id="Layer_1" xmlns="http://www.w3.org/2000/svg" xmlns:xlink="http://www.w3.org/1999/xlink" x="0px" y="0px"
	 viewBox="0 0 36 36" style="enable-background:new 0 0 36 36;" xml:space="preserve">
<style type="text/css">
	.st0{fill:#FFFFFF;}
</style>
<g id="Layer_1_1_">
	<g>
		<g>
			<path class="st0" d="M15.3,28h4c0,0,0-5.5,0-10h3l0.4-4h-3.2v-1.6c0-0.8,0.5-1,0.9-1s2.2,0,2.2,0V8h-3.1c-3.4,0-4.2,2.6-4.2,4.2
				V14h-2v4h2C15.3,22.5,15.3,28,15.3,28z"/>
		</g>
		<g>
			<path class="st0" d="M18,4c7.7,0,14,6.3,14,14s-6.3,14-14,14S4,25.7,4,18S10.3,4,18,4 M18,2C9.2,2,2,9.2,2,18s7.2,16,16,16
				s16-7.2,16-16S26.8,2,18,2L18,2z"/>
		</g>
	</g>
</g>
</svg>
