<?xml version="1.0" encoding="utf-8"?>
<svg version="1.1" id="Layer_1" xmlns="http://www.w3.org/2000/svg" xmlns:xlink="http://www.w3.org/1999/xlink" x="0px" y="0px"
	 viewBox="0 0 36 36" style="enable-background:new 0 0 36 36;" xml:space="preserve">
<style type="text/css">
	.st0{fill:#FFFFFF;}
</style>
<g id="Layer_1_1_">
	<g>
		<path class="st0" d="M18,4c7.7,0,14,6.3,14,14s-6.3,14-14,14S4,25.7,4,18S10.3,4,18,4 M18,2C9.2,2,2,9.2,2,18s7.2,16,16,16
			s16-7.2,16-16S26.8,2,18,2L18,2z"/>
	</g>
	<g>
		<path class="st0" d="M22,15.7c-0.6,0-1.3,0.3-1.7,0.9l0,0v-2.9h-1.2l0,0v7.9h1.2v-0.8l0,0c0.4,0.8,1.2,0.9,1.9,0.9
			c1.6,0,2.4-1.5,2.4-3C24.6,17.1,23.8,15.7,22,15.7z M21.9,20.7c-1,0-1.6-0.9-1.6-2c0-1.2,0.5-2,1.6-2c1,0,1.5,1,1.5,2
			S23,20.7,21.9,20.7z"/>
		<polygon class="st0" points="19.1,13.6 9.9,13.6 5.6,21.6 14.8,21.6 19.1,13.7 		"/>
		<path class="st0" d="M27.8,20.7c-1.1,0-1.5-1-1.5-2c0-1.7,0.9-2.1,1.5-2.1c0.7,0,1.2,0.4,1.3,1.1l0,0h1.2
			c-0.1-1.4-1.2-2.1-2.5-2.1c-1.8,0-2.7,1.4-2.7,3.1s1,3,2.7,3c1.4,0,2.3-0.8,2.5-2.3h-1.2C29,20.3,28.5,20.7,27.8,20.7z"/>
	</g>
</g>
</svg>
