<?xml version="1.0" encoding="utf-8"?>
<!-- Generator: Adobe Illustrator 23.1.1, SVG Export Plug-In . SVG Version: 6.00 Build 0)  -->
<svg version="1.1" id="Layer_1" xmlns="http://www.w3.org/2000/svg" xmlns:xlink="http://www.w3.org/1999/xlink" x="0px" y="0px"
	 viewBox="0 0 36 36" style="enable-background:new 0 0 36 36;" xml:space="preserve">
<style type="text/css">
	.st0{fill:#FFFFFF;}
	.st1{display:none;}
	.st2{display:inline;opacity:0.7;fill:#FFFFFF;enable-background:new    ;}
	.st3{display:inline;}
</style>
<g id="BG">
</g>
<g id="Slider_BG">
</g>
<g>
	<path class="st0" d="M27.9,14.6c-3.3,0-6-2.7-6-6s2.7-6,6-6s6,2.7,6,6S31.2,14.6,27.9,14.6z M27.9,4.6c-2.2,0-4,1.8-4,4s1.8,4,4,4
		s4-1.8,4-4S30.1,4.6,27.9,4.6z"/>
	<path class="st0" d="M27.9,33.3c-3.3,0-6-2.7-6-6s2.7-6,6-6s6,2.7,6,6S31.2,33.3,27.9,33.3z M27.9,23.3c-2.2,0-4,1.8-4,4s1.8,4,4,4
		s4-1.8,4-4S30.1,23.3,27.9,23.3z"/>
	<path class="st0" d="M8.9,24.3c-3.3,0-6-2.7-6-6s2.7-6,6-6s6,2.7,6,6S12.2,24.3,8.9,24.3z M8.9,14.3c-2.2,0-4,1.8-4,4s1.8,4,4,4
		s4-1.8,4-4S11.1,14.3,8.9,14.3z"/>
	<rect x="17.1" y="17.1" transform="matrix(0.4254 -0.905 0.905 0.4254 -10.1046 29.3416)" class="st0" width="2" height="11"/>
	<rect x="12.4" y="12.3" transform="matrix(0.8857 -0.4643 0.4643 0.8857 -4.105 9.9761)" class="st0" width="11.6" height="2"/>
</g>
<g id="Layer_7">
</g>
<g id="Screen" class="st1">
	<rect x="-566.1" y="-940.7" class="st2" width="1400" height="1076"/>
</g>
<g id="specctr" class="st1">
	<g id="Dimensions" class="st3">
	</g>
	<g id="Text_Properties" class="st3">
	</g>
	<g id="Spacing" class="st3">
	</g>
	<g id="Object_Properties" class="st3">
	</g>
</g>
</svg>
