<?xml version="1.0" encoding="utf-8"?>
<!-- Generator: Adobe Illustrator 24.0.0, SVG Export Plug-In . SVG Version: 6.00 Build 0)  -->
<svg version="1.1" id="Layer_1" xmlns="http://www.w3.org/2000/svg" xmlns:xlink="http://www.w3.org/1999/xlink" x="0px" y="0px"
	 viewBox="0 0 234 50" style="enable-background:new 0 0 234 50;" xml:space="preserve">
<style type="text/css">
	.st0{fill:#0092C5;}
	.st1{fill:#808080;}
	.st2{fill:#757575;}
</style>
<g id="Layer1_1_">
	<g>
		<circle class="st0" cx="24.2" cy="8.9" r="3.3"/>
		<circle class="st0" cx="7.6" cy="25.5" r="3.3"/>
		<circle class="st1" cx="24.2" cy="25.5" r="3.3"/>
		<circle class="st0" cx="24.2" cy="42.2" r="3.3"/>
		<circle class="st0" cx="40.9" cy="25.5" r="3.3"/>
	</g>
	<g>
		<g>
			<path class="st2" d="M62.9,34.1l-1.3,1.5c-0.7-0.6-1.4-0.9-2.2-0.9c-1.6,0-2.8,1.2-2.8,4.4c0,3,1.2,4.3,2.8,4.3
				c1,0,1.7-0.5,2.4-1l1.2,1.5c-0.8,0.8-2,1.5-3.7,1.5c-3.2,0-5.4-2.2-5.4-6.3s2.3-6.3,5.3-6.3C60.9,32.8,61.9,33.3,62.9,34.1z"/>
			<path class="st2" d="M86.8,42.4H83l-0.7,2.7h-2.7L83.3,33h3.1l3.7,12.1h-2.7L86.8,42.4z M86.3,40.5L84.9,35l-1.4,5.6L86.3,40.5
				L86.3,40.5z"/>
			<path class="st2" d="M114.8,35.1h-3.1v10.1h-2.6V35.1H106v-2h9.1L114.8,35.1z"/>
			<path class="st2" d="M137.7,42.4h-3.8l-0.7,2.7h-2.7l3.7-12.1h3.1l3.7,12.1h-2.7L137.7,42.4z M137.2,40.5l-1.4-5.5l-1.4,5.6
				L137.2,40.5L137.2,40.5z"/>
			<path class="st2" d="M161.4,43.1h4.8l-0.3,2.1h-7.1V33.1h2.6V43.1z"/>
			<path class="st2" d="M194.3,39.1c0,4-2,6.3-5.4,6.3c-3.3,0-5.4-2.3-5.4-6.3c0-3.9,2.1-6.3,5.4-6.3
				C192.3,32.8,194.3,35.1,194.3,39.1z M186.3,39.1c0,3.2,1,4.4,2.7,4.4s2.7-1.2,2.7-4.4s-0.9-4.4-2.7-4.4
				C187.2,34.7,186.3,35.9,186.3,39.1z"/>
			<path class="st2" d="M221.8,34.2l-1.4,1.4c-0.8-0.6-1.5-1-2.5-1c-1.7,0-3.1,1.3-3.1,4.4c0,3.2,0.9,4.4,2.7,4.4
				c0.6,0,1.3-0.1,1.8-0.4v-3h-1.7l-0.3-1.9h4.5v6c-1.2,0.8-2.7,1.2-4.3,1.2c-3.5,0-5.4-2.2-5.4-6.3s2.5-6.3,5.6-6.3
				C219.6,32.8,220.8,33.4,221.8,34.2z"/>
		</g>
	</g>
	<g>
		<g>
			<g>
				<path d="M64.1,10.1c0-3.3-1.6-5.1-4.7-5.1H55c-0.1,0-0.1,0.1-0.1,0.1v20.3c0,0.1,0.1,0.1,0.1,0.1h2.3c0.1,0,0.1-0.1,0.1-0.1
					v-8.3c0-0.1,0.1-0.1,0.1-0.1h1.7c3.2,0,4.9-1.7,4.9-5V10.1z M61.6,12.2c0,1.8-0.7,2.6-2.4,2.6h-1.7c-0.1,0-0.1-0.1-0.1-0.1V7.5
					c0-0.1,0.1-0.1,0.1-0.1h1.9c1.5,0,2.2,0.8,2.2,2.7V12.2z"/>
				<path d="M70.9,20.8h4.4l0,0c0.1,0,0.1,0,0.1,0.1l0.9,4.7c0,0.1,0.1,0.1,0.1,0.1h2.3h0.1v-0.1L75,5.1c0,0-0.1-0.1-0.2-0.1h-3.3
					c-0.1,0-0.1,0-0.1,0.1l-3.9,20.3v0.1h0.1h2.1c0.1,0,0.1,0,0.1-0.1l0.9-4.6C70.8,20.8,70.8,20.8,70.9,20.8z M72.9,9.1
					c0,0,0.1-0.1,0.2-0.1s0.1,0,0.1,0.1l1.8,9.2v0.1h-0.1h-3.6l0,0h-0.1v-0.1L72.9,9.1z"/>
				<path d="M91.3,7.4C91.4,7.4,91.4,7.3,91.3,7.4l0.1-2.2c0-0.1-0.1-0.1-0.1-0.1h-9.7c-0.1,0-0.1,0.1-0.1,0.1v2.1
					c0,0.1,0.1,0.1,0.1,0.1h3.5c0.1,0,0.1,0.1,0.1,0.1v18c0,0.1,0.1,0.1,0.1,0.1h2.2c0.1,0,0.1-0.1,0.1-0.1v-18
					c0-0.1,0.1-0.1,0.1-0.1H91.3z"/>
				<path d="M105,7.4C105.1,7.4,105.1,7.3,105,7.4l0.1-2.2c0-0.1-0.1-0.1-0.1-0.1h-9.7c-0.1,0-0.1,0.1-0.1,0.1v2.1
					c0,0.1,0.1,0.1,0.1,0.1h3.5c0.1,0,0.1,0.1,0.1,0.1v18c0,0.1,0.1,0.1,0.1,0.1h2.2c0.1,0,0.1-0.1,0.1-0.1v-18
					c0-0.1,0.1-0.1,0.1-0.1H105z"/>
				<path d="M110,25.6h8.4c0.1,0,0.1-0.1,0.1-0.1v-2.1c0-0.1-0.1-0.1-0.1-0.1h-5.8c-0.1,0-0.1-0.1-0.1-0.1v-6.7
					c0-0.1,0.1-0.1,0.1-0.1h4.7c0.1,0,0.1-0.1,0.1-0.1v-2c0-0.1-0.1-0.1-0.1-0.1h-4.7c-0.1,0-0.1-0.1-0.1-0.1V7.5
					c0-0.1,0.1-0.1,0.1-0.1h5.8c0.1,0,0.1-0.1,0.1-0.1V5.2c0-0.1-0.1-0.1-0.1-0.1H110c-0.1,0-0.1,0.1-0.1,0.1v20.3
					C109.8,25.6,109.9,25.6,110,25.6z"/>
				<path d="M131.1,25.5h2.3h0.1v-0.1v-5.6c0-2.3-0.7-3.9-2-4.6l-0.1-0.1c0,0,0-0.1,0.1-0.1c1.3-0.7,2-2,2-4.1V9.7
					c0-3.2-1.5-4.8-4.7-4.8h-4.5c-0.1,0-0.1,0.1-0.1,0.1v20.3c0,0.1,0.1,0.1,0.1,0.1h2.3c0.1,0,0.1-0.1,0.1-0.1v-8.9
					c0-0.1,0.1-0.1,0.1-0.1h1.3c2.3,0,2.8,1.8,2.8,3.4v5.7C130.9,25.5,131,25.5,131.1,25.5z M128.2,14.1h-1.4
					c-0.1,0-0.1-0.1-0.1-0.1V7.5c0-0.1,0.1-0.1,0.1-0.1h1.9c1.5,0,2.2,0.8,2.2,2.7v1.4C130.9,13.6,129.8,14.1,128.2,14.1z"/>
				<path d="M141.8,10.8l4.7,14.8c0,0.1,0.1,0.1,0.1,0.1h2.4c0.1,0,0.1-0.1,0.1-0.1V5.2c0-0.1-0.1-0.1-0.1-0.1h-2
					c-0.1,0-0.1,0.1-0.1,0.1v13c0,0.1,0,0.1-0.1,0.1s-0.1,0-0.2-0.1l-4.2-13c0-0.1-0.1-0.1-0.1-0.1h-2.9c-0.1,0-0.1,0.1-0.1,0.1
					v20.3c0,0.1,0.1,0.1,0.1,0.1h2c0.1,0,0.1-0.1,0.1-0.1V10.8c0-0.1,0-0.1,0.1-0.1l0,0C141.7,10.7,141.8,10.7,141.8,10.8z"/>
			</g>
			<g>
				<path class="st0" d="M164.8,18.5c0-2.2-0.7-3.6-2.2-4.2l-0.1-0.1c0,0,0-0.1,0.1-0.1c1.2-0.6,1.8-1.9,1.8-3.9V9.7
					c0-3.2-1.4-4.6-4.5-4.6h-4.6c-0.1,0-0.1,0.1-0.1,0.1v20.3c0,0.1,0.1,0.1,0.1,0.1h4.7c3.1,0,4.8-1.7,4.8-4.9V18.5z M157.8,7.5
					c0-0.1,0.1-0.1,0.1-0.1h2c1.5,0,2.1,0.7,2.1,2.5v0.7c0,2.1-1,2.6-2.6,2.6h-1.5c-0.1,0-0.1-0.1-0.1-0.1V7.5z M162.3,20.7
					c0,1.8-0.7,2.6-2.3,2.6h-2.1c-0.1,0-0.1-0.1-0.1-0.1v-7.6c0-0.1,0.1-0.1,0.1-0.1h1.7c2,0,2.7,0.8,2.7,2.9L162.3,20.7L162.3,20.7
					z"/>
				<path class="st0" d="M172.5,20.8h4.4l0,0c0.1,0,0.1,0,0.1,0.1l0.9,4.7c0,0.1,0.1,0.1,0.1,0.1h2.3h0.1v-0.1l-3.9-20.3
					c0-0.1-0.1-0.1-0.1-0.1h-3.3c-0.1,0-0.1,0-0.1,0.1l-3.9,20.3v0.1h0.1h2.1c0.1,0,0.1,0,0.1-0.1l0.9-4.6
					C172.4,20.8,172.4,20.8,172.5,20.8z M174.5,9.1c0-0.1,0.1-0.1,0.1-0.1c0.1,0,0.1,0,0.1,0.1l1.8,9.2v0.1h-0.1h-3.6l0,0h-0.1v-0.1
					L174.5,9.1z"/>
				<path class="st0" d="M190.4,14.5l0.1-0.1L190.4,14.5c-1.6-1.3-3.1-2.5-3.1-4.6c0-1.8,0.7-2.7,2.2-2.7s2.2,0.9,2.2,2.8v0.7
					c0,0.1,0.1,0.1,0.1,0.1h2.1c0.1,0,0.1-0.1,0.1-0.1V10c0-3.3-1.7-5.2-4.7-5.2s-4.6,1.9-4.6,5.2c0,3.1,2,4.7,3.7,6.1
					c1.6,1.3,3,2.5,3,4.5c0,2.3-1.2,2.8-2.2,2.8s-2.2-0.5-2.2-2.8v-1.3c0-0.1-0.1-0.1-0.1-0.1h-2.1c-0.1,0-0.1,0.1-0.1,0.1v1.2
					c0,3.3,1.7,5.2,4.7,5.2s4.7-1.9,4.7-5.2C194.1,17.5,192.2,15.9,190.4,14.5z"/>
				<path class="st0" d="M199.1,25.6h8.4c0.1,0,0.1-0.1,0.1-0.1v-2.1c0-0.1-0.1-0.1-0.1-0.1h-5.8c-0.1,0-0.1-0.1-0.1-0.1v-6.7
					c0-0.1,0.1-0.1,0.1-0.1h4.7c0.1,0,0.1-0.1,0.1-0.1v-2c0-0.1-0.1-0.1-0.1-0.1h-4.7c-0.1,0-0.1-0.1-0.1-0.1V7.5
					c0-0.1,0.1-0.1,0.1-0.1h5.8c0.1,0,0.1-0.1,0.1-0.1V5.2c0-0.1-0.1-0.1-0.1-0.1h-8.4c-0.1,0-0.1,0.1-0.1,0.1v20.3
					C198.9,25.6,199,25.6,199.1,25.6z"/>
				<path class="st0" d="M222.1,10.2c0-3.3-1.7-5.2-4.8-5.2h-4.8c-0.1,0-0.1,0.1-0.1,0.1v20.3c0,0.1,0.1,0.1,0.1,0.1h4.8
					c3.1,0,4.8-1.8,4.8-5.2V10.2z M219.6,20.5c0,1.8-0.8,2.7-2.3,2.7h-2.2c-0.1,0-0.1-0.1-0.1-0.1V7.5c0-0.1,0.1-0.1,0.1-0.1h2.2
					c1.5,0,2.3,0.9,2.3,2.7V20.5z"/>
			</g>
		</g>
		<g>
			<path d="M226.1,8.9V5.8h-1.2V5.4h2.8v0.4h-1.2V9h-0.4V8.9z"/>
			<path d="M228.2,8.9V5.4h0.7l0.8,2.5c0.1,0.2,0.1,0.4,0.2,0.5c0-0.1,0.1-0.3,0.2-0.6l0.9-2.5h0.6v3.6h-0.5v-3l-1,3h-0.4l-1-3v3
				H228.2z"/>
		</g>
	</g>
</g>
</svg>
