<?xml version="1.0" encoding="utf-8"?>
<!-- Generator: Adobe Illustrator 24.0.0, SVG Export Plug-In . SVG Version: 6.00 Build 0)  -->
<svg version="1.1" xmlns="http://www.w3.org/2000/svg" xmlns:xlink="http://www.w3.org/1999/xlink" x="0px" y="0px"
	 viewBox="0 0 234 50" style="enable-background:new 0 0 234 50;" xml:space="preserve">
<style type="text/css">
	.st0{enable-background:new    ;}
	.st1{fill:#0092C5;}
	.st2{fill:#231F20;}
	.st3{clip-path:url(#XMLID_13_);}
	.st4{fill:none;stroke:#808080;stroke-width:0.7027;stroke-linejoin:round;stroke-miterlimit:10;}
	.st5{clip-path:url(#SVGID_2_);}
	.st6{fill:#808080;}
	.st7{fill:none;stroke:#808080;stroke-width:0.755;stroke-linejoin:round;stroke-miterlimit:10;}
	.st8{clip-path:url(#SVGID_4_);fill:url(#SVGID_5_);}
	.st9{clip-path:url(#SVGID_4_);fill:url(#SVGID_6_);}
	.st10{clip-path:url(#SVGID_4_);fill:#FFFFFF;}
	.st11{clip-path:url(#SVGID_4_);fill:none;stroke:#FFFFFF;stroke-width:0.3958;stroke-miterlimit:10;}
	.st12{clip-path:url(#SVGID_4_);fill:#808080;}
	.st13{clip-path:url(#SVGID_4_);fill:#999999;}
	.st14{clip-path:url(#SVGID_4_);}
	.st15{fill:none;stroke:#333333;stroke-width:0.7917;stroke-linejoin:round;stroke-miterlimit:10;}
	.st16{fill:none;stroke:#313131;stroke-width:0.7917;stroke-linejoin:round;stroke-miterlimit:10;}
	.st17{fill:none;stroke:#2E2E2E;stroke-width:0.7917;stroke-linejoin:round;stroke-miterlimit:10;}
	.st18{fill:none;stroke:#2C2C2C;stroke-width:0.7917;stroke-linejoin:round;stroke-miterlimit:10;}
	.st19{fill:none;stroke:#2A2A2A;stroke-width:0.7917;stroke-linejoin:round;stroke-miterlimit:10;}
	.st20{fill:none;stroke:#282828;stroke-width:0.7917;stroke-linejoin:round;stroke-miterlimit:10;}
	.st21{fill:none;stroke:#252525;stroke-width:0.7917;stroke-linejoin:round;stroke-miterlimit:10;}
	.st22{fill:none;stroke:#232323;stroke-width:0.7917;stroke-linejoin:round;stroke-miterlimit:10;}
	.st23{fill:none;stroke:#212121;stroke-width:0.7917;stroke-linejoin:round;stroke-miterlimit:10;}
	.st24{fill:none;stroke:#1F1F1F;stroke-width:0.7917;stroke-linejoin:round;stroke-miterlimit:10;}
	.st25{fill:none;stroke:#1C1C1C;stroke-width:0.7917;stroke-linejoin:round;stroke-miterlimit:10;}
	.st26{fill:none;stroke:#1A1A1A;stroke-width:0.7917;stroke-linejoin:round;stroke-miterlimit:10;}
	.st27{fill:url(#SVGID_7_);}
	.st28{clip-path:url(#SVGID_4_);fill:#B3B3B3;}
	.st29{clip-path:url(#SVGID_4_);fill:url(#SVGID_8_);}
	.st30{fill:none;stroke:#F2F2F2;stroke-width:0.7917;stroke-linejoin:round;stroke-miterlimit:10;}
	.st31{fill:none;stroke:#EAEAEA;stroke-width:0.7917;stroke-linejoin:round;stroke-miterlimit:10;}
	.st32{fill:none;stroke:#E2E2E2;stroke-width:0.7917;stroke-linejoin:round;stroke-miterlimit:10;}
	.st33{fill:none;stroke:#DADADA;stroke-width:0.7917;stroke-linejoin:round;stroke-miterlimit:10;}
	.st34{fill:none;stroke:#D2D2D2;stroke-width:0.7917;stroke-linejoin:round;stroke-miterlimit:10;}
	.st35{fill:none;stroke:#CACACA;stroke-width:0.7917;stroke-linejoin:round;stroke-miterlimit:10;}
	.st36{fill:none;stroke:#C1C1C1;stroke-width:0.7917;stroke-linejoin:round;stroke-miterlimit:10;}
	.st37{fill:none;stroke:#B9B9B9;stroke-width:0.7917;stroke-linejoin:round;stroke-miterlimit:10;}
	.st38{fill:none;stroke:#B1B1B1;stroke-width:0.7917;stroke-linejoin:round;stroke-miterlimit:10;}
	.st39{fill:none;stroke:#A9A9A9;stroke-width:0.7917;stroke-linejoin:round;stroke-miterlimit:10;}
	.st40{fill:none;stroke:#A1A1A1;stroke-width:0.7917;stroke-linejoin:round;stroke-miterlimit:10;}
	.st41{fill:none;stroke:#999999;stroke-width:0.7917;stroke-linejoin:round;stroke-miterlimit:10;}
	.st42{clip-path:url(#SVGID_4_);fill:none;stroke:#E6E6E6;stroke-width:0.3958;stroke-miterlimit:10;}
	.st43{clip-path:url(#SVGID_10_);fill:none;stroke:#808080;stroke-width:0.755;stroke-linejoin:round;stroke-miterlimit:10;}
	.st44{clip-path:url(#SVGID_10_);fill:#808080;stroke:#808080;stroke-width:0.755;stroke-linejoin:round;stroke-miterlimit:10;}
	.st45{clip-path:url(#SVGID_10_);}
	.st46{fill:#FFFFFF;}
	.st47{clip-path:url(#SVGID_12_);fill:none;stroke:#808080;stroke-width:0.755;stroke-linejoin:round;stroke-miterlimit:10;}
	.st48{clip-path:url(#SVGID_12_);}
	.st49{clip-path:url(#SVGID_12_);fill:none;stroke:#808080;stroke-linejoin:round;stroke-miterlimit:10;}
	.st50{clip-path:url(#SVGID_12_);fill:#808080;stroke:#808080;stroke-width:0.755;stroke-linejoin:round;stroke-miterlimit:10;}
	.st51{fill:none;stroke:#808080;stroke-width:3;stroke-linejoin:round;stroke-miterlimit:10;}
	.st52{fill:none;stroke:#808080;stroke-width:2;stroke-linejoin:round;stroke-miterlimit:10;}
	.st53{fill:none;stroke:#808080;stroke-width:0.755;stroke-linejoin:round;}
	.st54{fill:none;stroke:#808080;stroke-width:0.755;stroke-linejoin:round;stroke-dasharray:1.0082,1.0082;}
	.st55{fill:none;stroke:#808080;stroke-linejoin:round;stroke-miterlimit:10;}
	
		.st56{clip-path:url(#SVGID_12_);fill:none;stroke:#808080;stroke-width:0.755;stroke-linejoin:round;stroke-miterlimit:10;stroke-dasharray:0.3,0.7,1,0.5;}
	.st57{fill:none;stroke:#808080;stroke-width:0.755;stroke-linejoin:round;stroke-dasharray:0.3126,1.042;}
	.st58{fill:none;stroke:#808080;stroke-width:0.755;stroke-linejoin:round;stroke-dasharray:1.042,0.521,0.3126,1.042;}
	.st59{opacity:0.3;fill:#808080;}
	.st60{opacity:0.3;fill:#FFFFFF;}
	.st61{clip-path:url(#XMLID_16_);}
	.st62{clip-path:url(#SVGID_14_);}
	.st63{clip-path:url(#SVGID_16_);fill:url(#SVGID_17_);}
	.st64{clip-path:url(#SVGID_16_);fill:url(#SVGID_18_);}
	.st65{clip-path:url(#SVGID_16_);fill:#FFFFFF;}
	.st66{clip-path:url(#SVGID_16_);fill:none;stroke:#FFFFFF;stroke-width:0.3958;stroke-miterlimit:10;}
	.st67{clip-path:url(#SVGID_16_);fill:#808080;}
	.st68{clip-path:url(#SVGID_16_);fill:#999999;}
	.st69{clip-path:url(#SVGID_16_);}
	.st70{opacity:0.2;fill:none;stroke:#B3B3B3;stroke-width:0.7917;stroke-linejoin:round;stroke-miterlimit:10;}
	.st71{opacity:0.2545;fill:none;stroke:#AEAEAE;stroke-width:0.7917;stroke-linejoin:round;stroke-miterlimit:10;}
	.st72{opacity:0.3091;fill:none;stroke:#AAAAAA;stroke-width:0.7917;stroke-linejoin:round;stroke-miterlimit:10;}
	.st73{opacity:0.3636;fill:none;stroke:#A5A5A5;stroke-width:0.7917;stroke-linejoin:round;stroke-miterlimit:10;}
	.st74{opacity:0.4182;fill:none;stroke:#A0A0A0;stroke-width:0.7917;stroke-linejoin:round;stroke-miterlimit:10;}
	.st75{opacity:0.4727;fill:none;stroke:#9C9C9C;stroke-width:0.7917;stroke-linejoin:round;stroke-miterlimit:10;}
	.st76{opacity:0.5273;fill:none;stroke:#979797;stroke-width:0.7917;stroke-linejoin:round;stroke-miterlimit:10;}
	.st77{opacity:0.5818;fill:none;stroke:#939393;stroke-width:0.7917;stroke-linejoin:round;stroke-miterlimit:10;}
	.st78{opacity:0.6364;fill:none;stroke:#8E8E8E;stroke-width:0.7917;stroke-linejoin:round;stroke-miterlimit:10;}
	.st79{opacity:0.6909;fill:none;stroke:#898989;stroke-width:0.7917;stroke-linejoin:round;stroke-miterlimit:10;}
	.st80{opacity:0.7455;fill:none;stroke:#858585;stroke-width:0.7917;stroke-linejoin:round;stroke-miterlimit:10;}
	.st81{opacity:0.8;fill:none;stroke:#808080;stroke-width:0.7917;stroke-linejoin:round;stroke-miterlimit:10;}
	.st82{fill:url(#SVGID_19_);}
	.st83{clip-path:url(#SVGID_16_);fill:#B3B3B3;}
	.st84{fill:none;stroke:#666666;stroke-width:0.792;stroke-linejoin:round;stroke-miterlimit:10;}
	.st85{fill:none;stroke:#5D5D5D;stroke-width:0.792;stroke-linejoin:round;stroke-miterlimit:10;}
	.st86{fill:none;stroke:#535353;stroke-width:0.7919;stroke-linejoin:round;stroke-miterlimit:10;}
	.st87{fill:none;stroke:#4A4A4A;stroke-width:0.7919;stroke-linejoin:round;stroke-miterlimit:10;}
	.st88{fill:none;stroke:#414141;stroke-width:0.7919;stroke-linejoin:round;stroke-miterlimit:10;}
	.st89{fill:none;stroke:#383838;stroke-width:0.7918;stroke-linejoin:round;stroke-miterlimit:10;}
	.st90{fill:none;stroke:#2E2E2E;stroke-width:0.7918;stroke-linejoin:round;stroke-miterlimit:10;}
	.st91{fill:none;stroke:#252525;stroke-width:0.7918;stroke-linejoin:round;stroke-miterlimit:10;}
	.st92{fill:none;stroke:#1C1C1C;stroke-width:0.7918;stroke-linejoin:round;stroke-miterlimit:10;}
	.st93{fill:none;stroke:#131313;stroke-width:0.7917;stroke-linejoin:round;stroke-miterlimit:10;}
	.st94{fill:none;stroke:#090909;stroke-width:0.7917;stroke-linejoin:round;stroke-miterlimit:10;}
	.st95{fill:none;stroke:#000000;stroke-width:0.7917;stroke-linejoin:round;stroke-miterlimit:10;}
	.st96{clip-path:url(#SVGID_16_);fill:none;stroke:#E6E6E6;stroke-width:0.3958;stroke-miterlimit:10;}
	.st97{clip-path:url(#SVGID_16_);fill:url(#SVGID_20_);}
	.st98{fill:none;}
	.st99{fill:#444444;}
	.st100{fill:none;stroke:#FFFFFF;stroke-linecap:square;stroke-miterlimit:10;}
	.st101{clip-path:url(#SVGID_22_);}
	.st102{fill:none;stroke:#FFFFFF;stroke-miterlimit:10;}
	.st103{opacity:0.5;fill:#808080;}
	.st104{opacity:0.28;fill:#808080;}
	.st105{opacity:0.5;}
	.st106{fill:#909090;}
	.st107{fill:#8E8E8E;}
	.st108{opacity:0.75;}
	.st109{opacity:0.85;}
	.st110{opacity:0.3;fill:#909090;}
	.st111{opacity:0.4;fill:#FFFFFF;}
	.st112{opacity:0.8;}
	.st113{opacity:0.3;}
	.st114{fill:none;stroke:#FFFFFF;stroke-width:2;stroke-linejoin:round;stroke-miterlimit:10;}
	.st115{fill:none;stroke:#0092C5;stroke-width:2;stroke-linejoin:round;stroke-miterlimit:10;}
	.st116{fill:none;stroke:#808080;stroke-width:2;stroke-linejoin:round;}
	.st117{clip-path:url(#SVGID_24_);fill:none;stroke:#808080;stroke-width:2;stroke-linejoin:round;stroke-miterlimit:10;}
	.st118{clip-path:url(#SVGID_26_);fill:none;stroke:#808080;stroke-width:2;stroke-linejoin:round;stroke-miterlimit:10;}
	.st119{clip-path:url(#SVGID_28_);fill:none;stroke:#808080;stroke-width:2;stroke-linejoin:round;stroke-miterlimit:10;}
	.st120{clip-path:url(#SVGID_30_);fill:none;stroke:#808080;stroke-width:2;stroke-linejoin:round;stroke-miterlimit:10;}
	.st121{clip-path:url(#SVGID_32_);}
	.st122{fill:none;stroke:#4A4A4A;stroke-width:2;stroke-linejoin:round;stroke-miterlimit:10;}
	.st123{fill:none;stroke:#FFFFFF;stroke-width:3;stroke-linejoin:round;stroke-miterlimit:10;}
	.st124{fill:#235B9E;}
	.st125{fill:#00B2DE;}
	.st126{fill:#0F4260;}
	.st127{fill:#FF3A21;}
	.st128{fill:#FF5E00;}
	.st129{fill:#FF312E;}
	.st130{fill:#2D80A6;}
	.st131{fill:#595959;}
	.st132{clip-path:url(#SVGID_34_);}
	.st133{fill:none;stroke:#0092C5;stroke-linejoin:round;stroke-miterlimit:10;}
	.st134{fill:#46A1EE;}
	.st135{fill:none;stroke:#FFFFFF;stroke-width:2;stroke-miterlimit:10;}
	.st136{clip-path:url(#SVGID_36_);fill:none;stroke:#808080;stroke-width:2;stroke-linejoin:round;stroke-miterlimit:10;}
	.st137{clip-path:url(#SVGID_38_);fill:none;stroke:#808080;stroke-width:2;stroke-linejoin:round;stroke-miterlimit:10;}
	.st138{clip-path:url(#SVGID_40_);fill:none;stroke:#808080;stroke-width:2;stroke-linejoin:round;stroke-miterlimit:10;}
	.st139{fill:#757575;}
	.st140{fill:#CD3542;}
	.st141{fill:none;stroke:#0092C5;stroke-width:2;stroke-miterlimit:10;}
	.st142{fill:none;stroke:#0092C5;stroke-width:1.6667;stroke-linejoin:round;stroke-miterlimit:10;}
	.st143{font-family:'MyriadPro-Regular';}
	.st144{font-size:5px;}
	.st145{display:none;}
	.st146{display:inline;opacity:0.7;fill:#FFFFFF;}
	.st147{display:inline;}
	.st148{opacity:0.3;fill:#0000FF;}
	.st149{fill:#CCCCCC;stroke:#FF0000;stroke-miterlimit:10;}
	.st150{fill:none;stroke:#FF0000;stroke-miterlimit:10;}
	.st151{fill:none;stroke:#FF0000;stroke-miterlimit:10;stroke-dasharray:6.021,6.021;}
	.st152{fill:none;stroke:#FF0000;stroke-miterlimit:10;stroke-dasharray:6;}
	.st153{fill:#FF0000;}
	.st154{fill:#333333;stroke:#FF0000;stroke-miterlimit:10;}
	.st155{fill:none;stroke:#8800FF;stroke-miterlimit:10;}
	.st156{fill:#8800FF;stroke:#8800FF;stroke-miterlimit:10;}
	.st157{fill:none;stroke:#0000FF;stroke-miterlimit:10;}
</style>
<g id="BG">
</g>
<g id="Slider_BG">
</g>
<g id="Layer_1">
	<circle class="st1" cx="24.2" cy="8.9" r="3.3"/>
	<circle class="st1" cx="7.6" cy="25.5" r="3.3"/>
	<circle class="st6" cx="24.2" cy="25.5" r="3.3"/>
	<circle class="st1" cx="24.2" cy="42.2" r="3.3"/>
	<circle class="st1" cx="40.9" cy="25.5" r="3.3"/>
	<g>
		<g>
			<path class="st139" d="M62.9,34.1l-1.3,1.5c-0.7-0.6-1.4-0.9-2.2-0.9c-1.6,0-2.8,1.2-2.8,4.4c0,3,1.2,4.3,2.8,4.3
				c1,0,1.7-0.5,2.4-1l1.2,1.5c-0.8,0.8-2,1.5-3.7,1.5c-3.2,0-5.4-2.2-5.4-6.3c0-4.1,2.3-6.3,5.3-6.3C60.9,32.8,61.9,33.3,62.9,34.1
				z"/>
			<path class="st139" d="M72.8,42.4H69l-0.7,2.7h-2.7l3.7-12.1h3.1l3.7,12.1h-2.7L72.8,42.4z M72.3,40.5L70.9,35l-1.4,5.6H72.3z"/>
			<path class="st139" d="M86.8,35.1h-3.1v10.1h-2.6V35.1H78v-2h9.1L86.8,35.1z"/>
			<path class="st139" d="M95.7,42.4h-3.8l-0.7,2.7h-2.7l3.7-12.1h3.1l3.7,12.1h-2.7L95.7,42.4z M95.2,40.5L93.8,35l-1.4,5.6H95.2z"
				/>
			<path class="st139" d="M105.4,43.1h4.8l-0.3,2.1h-7.1V33.1h2.6V43.1z"/>
			<path class="st139" d="M124.3,39.1c0,4-2,6.3-5.4,6.3c-3.3,0-5.4-2.3-5.4-6.3c0-3.9,2.1-6.3,5.4-6.3
				C122.3,32.8,124.3,35.1,124.3,39.1z M116.3,39.1c0,3.2,1,4.4,2.7,4.4c1.7,0,2.7-1.2,2.7-4.4c0-3.2-0.9-4.4-2.7-4.4
				C117.2,34.7,116.3,35.9,116.3,39.1z"/>
			<path class="st139" d="M137.8,34.2l-1.4,1.4c-0.8-0.6-1.5-1-2.5-1c-1.7,0-3.1,1.3-3.1,4.4c0,3.2,0.9,4.4,2.7,4.4
				c0.6,0,1.3-0.1,1.8-0.4v-3h-1.7l-0.3-1.9h4.5v6c-1.2,0.8-2.7,1.2-4.3,1.2c-3.5,0-5.4-2.2-5.4-6.3c0-4.1,2.5-6.3,5.6-6.3
				C135.6,32.8,136.8,33.4,137.8,34.2z"/>
			<path class="st139" d="M157.3,34.3l-1.2,1.4c-0.9-0.7-1.7-1-2.7-1c-1,0-1.8,0.5-1.8,1.3c0,0.8,0.5,1.2,2.4,1.8
				c2.2,0.7,3.6,1.6,3.6,3.8c0,2.2-1.7,3.8-4.7,3.8c-2,0-3.5-0.7-4.5-1.7l1.3-1.5c0.9,0.8,1.8,1.2,3.1,1.2c1.2,0,2.1-0.6,2.1-1.7
				c0-1-0.5-1.4-2.3-1.9c-2.6-0.8-3.7-1.9-3.7-3.7c0-2.1,1.8-3.4,4.2-3.4C155,32.8,156.3,33.3,157.3,34.3z"/>
			<path class="st139" d="M169,34.9h-4.4v3.1h3.8v1.9h-3.8v3.3h4.7v1.9H162V33.1h7.2L169,34.9z"/>
			<path class="st139" d="M179.6,42.4h-3.8l-0.7,2.7h-2.7l3.7-12.1h3.1l3.7,12.1h-2.7L179.6,42.4z M179.1,40.5l-1.4-5.6l-1.4,5.6
				H179.1z"/>
			<path class="st139" d="M190.6,40.4h-1.3v4.7h-2.6V33.1h3.8c3.2,0,4.9,1.2,4.9,3.6c0,1.6-0.8,2.6-2.4,3.3l3.1,5.2h-2.9L190.6,40.4
				z M189.3,38.6h1.3c1.3,0,2.1-0.6,2.1-1.9c0-1.2-0.7-1.8-2.3-1.8h-1.2V38.6z"/>
			<path class="st139" d="M208.3,34.1l-1.3,1.5c-0.7-0.6-1.4-0.9-2.2-0.9c-1.6,0-2.8,1.2-2.8,4.4c0,3,1.2,4.3,2.8,4.3
				c1,0,1.7-0.5,2.4-1l1.2,1.5c-0.8,0.8-2,1.5-3.7,1.5c-3.2,0-5.4-2.2-5.4-6.3c0-4.1,2.3-6.3,5.3-6.3
				C206.2,32.8,207.3,33.3,208.3,34.1z"/>
			<path class="st139" d="M219.1,39.9h-4v5.3h-2.6V33.1h2.6v4.8h4v-4.8h2.6v12.1h-2.6V39.9z"/>
		</g>
	</g>
	<g>
		<g>
			<g>
				<path d="M64.1,10.1c0-3.3-1.6-5.1-4.7-5.1H55c-0.1,0-0.1,0.1-0.1,0.1v20.3c0,0.1,0.1,0.1,0.1,0.1h2.3c0.1,0,0.1-0.1,0.1-0.1
					v-8.3c0-0.1,0.1-0.1,0.1-0.1h1.7c3.2,0,4.9-1.7,4.9-5V10.1z M61.6,12.2c0,1.8-0.7,2.6-2.4,2.6h-1.7c-0.1,0-0.1-0.1-0.1-0.1V7.5
					c0-0.1,0.1-0.1,0.1-0.1h1.9c1.5,0,2.2,0.8,2.2,2.7V12.2z"/>
				<path d="M70.9,20.8l4.4,0c0,0,0,0,0,0c0.1,0,0.1,0,0.1,0.1l0.9,4.7c0,0.1,0.1,0.1,0.1,0.1h2.3c0,0,0.1,0,0.1,0c0,0,0-0.1,0-0.1
					L75,5.1C75,5.1,74.9,5,74.8,5h-3.3c-0.1,0-0.1,0-0.1,0.1l-3.9,20.3c0,0,0,0.1,0,0.1c0,0,0.1,0,0.1,0h2.1c0.1,0,0.1,0,0.1-0.1
					l0.9-4.6C70.8,20.8,70.8,20.8,70.9,20.8z M72.9,9.1C72.9,9.1,73,9,73.1,9c0.1,0,0.1,0,0.1,0.1l1.8,9.2c0,0,0,0.1,0,0.1
					s-0.1,0-0.1,0l-3.6,0c0,0,0,0,0,0c0,0-0.1,0-0.1,0c0,0,0-0.1,0-0.1L72.9,9.1z"/>
				<path d="M91.3,7.4c0.1,0,0.1-0.1,0.1-0.1V5.2c0-0.1-0.1-0.1-0.1-0.1h-9.7c-0.1,0-0.1,0.1-0.1,0.1v2.1c0,0.1,0.1,0.1,0.1,0.1h3.5
					c0.1,0,0.1,0.1,0.1,0.1v18c0,0.1,0.1,0.1,0.1,0.1h2.2c0.1,0,0.1-0.1,0.1-0.1v-18c0-0.1,0.1-0.1,0.1-0.1H91.3z"/>
				<path d="M105,7.4c0.1,0,0.1-0.1,0.1-0.1V5.2c0-0.1-0.1-0.1-0.1-0.1h-9.7c-0.1,0-0.1,0.1-0.1,0.1v2.1c0,0.1,0.1,0.1,0.1,0.1h3.5
					c0.1,0,0.1,0.1,0.1,0.1v18c0,0.1,0.1,0.1,0.1,0.1h2.2c0.1,0,0.1-0.1,0.1-0.1v-18c0-0.1,0.1-0.1,0.1-0.1H105z"/>
				<path d="M110,25.6h8.4c0.1,0,0.1-0.1,0.1-0.1v-2.1c0-0.1-0.1-0.1-0.1-0.1h-5.8c-0.1,0-0.1-0.1-0.1-0.1v-6.7
					c0-0.1,0.1-0.1,0.1-0.1h4.7c0.1,0,0.1-0.1,0.1-0.1v-2c0-0.1-0.1-0.1-0.1-0.1h-4.7c-0.1,0-0.1-0.1-0.1-0.1V7.5
					c0-0.1,0.1-0.1,0.1-0.1h5.8c0.1,0,0.1-0.1,0.1-0.1V5.2c0-0.1-0.1-0.1-0.1-0.1H110c-0.1,0-0.1,0.1-0.1,0.1v20.3
					C109.8,25.6,109.9,25.6,110,25.6z"/>
				<path d="M131.1,25.5h2.3c0,0,0.1,0,0.1,0c0,0,0-0.1,0-0.1l0-5.6c0-2.3-0.7-3.9-2-4.6c0,0-0.1-0.1-0.1-0.1s0-0.1,0.1-0.1
					c1.3-0.7,2-2,2-4.1V9.7c0-3.2-1.5-4.8-4.7-4.8h-4.5c-0.1,0-0.1,0.1-0.1,0.1v20.3c0,0.1,0.1,0.1,0.1,0.1h2.3
					c0.1,0,0.1-0.1,0.1-0.1v-8.9c0-0.1,0.1-0.1,0.1-0.1h1.3c2.3,0,2.8,1.8,2.8,3.4v5.7C130.9,25.5,131,25.5,131.1,25.5z M128.2,14.1
					h-1.4c-0.1,0-0.1-0.1-0.1-0.1V7.5c0-0.1,0.1-0.1,0.1-0.1h1.9c1.5,0,2.2,0.8,2.2,2.7v1.4C130.9,13.6,129.8,14.1,128.2,14.1z"/>
				<path d="M141.8,10.8l4.7,14.8c0,0.1,0.1,0.1,0.1,0.1h2.4c0.1,0,0.1-0.1,0.1-0.1V5.2c0-0.1-0.1-0.1-0.1-0.1h-2
					c-0.1,0-0.1,0.1-0.1,0.1v13c0,0.1,0,0.1-0.1,0.1c-0.1,0-0.1,0-0.2-0.1l-4.2-13c0-0.1-0.1-0.1-0.1-0.1h-2.9
					c-0.1,0-0.1,0.1-0.1,0.1v20.3c0,0.1,0.1,0.1,0.1,0.1h2c0.1,0,0.1-0.1,0.1-0.1V10.8c0-0.1,0-0.1,0.1-0.1c0,0,0,0,0,0
					C141.7,10.7,141.8,10.7,141.8,10.8z"/>
			</g>
			<g>
				<path class="st1" d="M164.8,18.5c0-2.2-0.7-3.6-2.2-4.2c0,0-0.1-0.1-0.1-0.1s0-0.1,0.1-0.1c1.2-0.6,1.8-1.9,1.8-3.9V9.7
					c0-3.2-1.4-4.6-4.5-4.6h-4.6c-0.1,0-0.1,0.1-0.1,0.1v20.3c0,0.1,0.1,0.1,0.1,0.1h4.7c3.1,0,4.8-1.7,4.8-4.9V18.5z M157.8,7.5
					c0-0.1,0.1-0.1,0.1-0.1h2c1.5,0,2.1,0.7,2.1,2.5v0.7c0,2.1-1,2.6-2.6,2.6h-1.5c-0.1,0-0.1-0.1-0.1-0.1V7.5z M162.3,20.7
					c0,1.8-0.7,2.6-2.3,2.6h-2.1c-0.1,0-0.1-0.1-0.1-0.1v-7.6c0-0.1,0.1-0.1,0.1-0.1h1.7c2,0,2.7,0.8,2.7,2.9V20.7z"/>
				<path class="st1" d="M172.5,20.8l4.4,0c0,0,0,0,0,0c0.1,0,0.1,0,0.1,0.1l0.9,4.7c0,0.1,0.1,0.1,0.1,0.1h2.3c0,0,0.1,0,0.1,0
					c0,0,0-0.1,0-0.1l-3.9-20.3c0-0.1-0.1-0.1-0.1-0.1h-3.3c-0.1,0-0.1,0-0.1,0.1l-3.9,20.3c0,0,0,0.1,0,0.1c0,0,0.1,0,0.1,0h2.1
					c0.1,0,0.1,0,0.1-0.1l0.9-4.6C172.4,20.8,172.4,20.8,172.5,20.8z M174.5,9.1c0-0.1,0.1-0.1,0.1-0.1c0.1,0,0.1,0,0.1,0.1l1.8,9.2
					c0,0,0,0.1,0,0.1s-0.1,0-0.1,0l-3.6,0c0,0,0,0,0,0c0,0-0.1,0-0.1,0c0,0,0-0.1,0-0.1L174.5,9.1z"/>
				<path class="st1" d="M190.4,14.5l0.1-0.1L190.4,14.5c-1.6-1.3-3.1-2.5-3.1-4.6c0-1.8,0.7-2.7,2.2-2.7c1.5,0,2.2,0.9,2.2,2.8v0.7
					c0,0.1,0.1,0.1,0.1,0.1h2.1c0.1,0,0.1-0.1,0.1-0.1V10c0-3.3-1.7-5.2-4.7-5.2c-3,0-4.6,1.9-4.6,5.2c0,3.1,2,4.7,3.7,6.1
					c1.6,1.3,3,2.5,3,4.5c0,2.3-1.2,2.8-2.2,2.8c-1,0-2.2-0.5-2.2-2.8v-1.3c0-0.1-0.1-0.1-0.1-0.1h-2.1c-0.1,0-0.1,0.1-0.1,0.1v1.2
					c0,3.3,1.7,5.2,4.7,5.2c3,0,4.7-1.9,4.7-5.2C194.1,17.5,192.2,15.9,190.4,14.5z"/>
				<path class="st1" d="M199.1,25.6h8.4c0.1,0,0.1-0.1,0.1-0.1v-2.1c0-0.1-0.1-0.1-0.1-0.1h-5.8c-0.1,0-0.1-0.1-0.1-0.1v-6.7
					c0-0.1,0.1-0.1,0.1-0.1h4.7c0.1,0,0.1-0.1,0.1-0.1v-2c0-0.1-0.1-0.1-0.1-0.1h-4.7c-0.1,0-0.1-0.1-0.1-0.1V7.5
					c0-0.1,0.1-0.1,0.1-0.1h5.8c0.1,0,0.1-0.1,0.1-0.1V5.2c0-0.1-0.1-0.1-0.1-0.1h-8.4c-0.1,0-0.1,0.1-0.1,0.1v20.3
					C198.9,25.6,199,25.6,199.1,25.6z"/>
				<path class="st1" d="M222.1,10.2c0-3.3-1.7-5.2-4.8-5.2h-4.8c-0.1,0-0.1,0.1-0.1,0.1v20.3c0,0.1,0.1,0.1,0.1,0.1h4.8
					c3.1,0,4.8-1.8,4.8-5.2V10.2z M219.6,20.5c0,1.8-0.8,2.7-2.3,2.7h-2.2c-0.1,0-0.1-0.1-0.1-0.1V7.5c0-0.1,0.1-0.1,0.1-0.1h2.2
					c1.5,0,2.3,0.9,2.3,2.7V20.5z"/>
			</g>
		</g>
		<text transform="matrix(1 0 0 1 224.8098 8.9346)" class="st143 st144">TM</text>
	</g>
</g>
<g id="Layer_7">
</g>
<g id="Screen" class="st145">
</g>
<g id="specctr" class="st145">
	<g id="Dimensions" class="st147">
	</g>
	<g id="Text_Properties" class="st147">
	</g>
	<g id="Spacing" class="st147">
	</g>
	<g id="Object_Properties" class="st147">
	</g>
</g>
</svg>
