<?xml version="1.0" encoding="utf-8"?>
<!-- Generator: Adobe Illustrator 23.0.6, SVG Export Plug-In . SVG Version: 6.00 Build 0)  -->
<svg version="1.1" id="Layer_1" xmlns="http://www.w3.org/2000/svg" xmlns:xlink="http://www.w3.org/1999/xlink" x="0px" y="0px"
	 viewBox="0 0 36 36" style="enable-background:new 0 0 36 36;" xml:space="preserve">
<style type="text/css">
	.st0{fill:#808080;}
	.st1{display:none;}
	.st2{display:inline;opacity:0;fill:#FFFFFF;enable-background:new    ;}
	.st3{display:inline;}
</style>
<g id="BG">
</g>
<g id="Slider_BG">
</g>
<g>
	<path class="st0" d="M15.8,28c-7.2,0-13-5.8-13-13c0-7.2,5.8-13,13-13c7.2,0,13,5.8,13,13C28.8,22.2,23,28,15.8,28z M15.8,4
		c-6.1,0-11,4.9-11,11s4.9,11,11,11s11-4.9,11-11S21.9,4,15.8,4z"/>
	<rect x="27.3" y="22.7" transform="matrix(0.7071 -0.7071 0.7071 0.7071 -12.0259 28.4669)" class="st0" width="2" height="12"/>
</g>
<g id="Layer_7">
</g>
<g id="Screen" class="st1">
	<rect x="-398.1" y="-809.7" class="st2" width="1400" height="1076"/>
</g>
<g id="specctr" class="st1">
	<g id="Dimensions" class="st3">
	</g>
	<g id="Text_Properties" class="st3">
	</g>
	<g id="Spacing" class="st3">
	</g>
	<g id="Object_Properties" class="st3">
		<g id="Specctr_Properties_Mark_3_">
		</g>
	</g>
</g>
</svg>
