<?xml version="1.0" encoding="utf-8"?>
<!-- Generator: Adobe Illustrator 24.0.0, SVG Export Plug-In . SVG Version: 6.00 Build 0)  -->
<svg version="1.1" id="Layer_1" xmlns="http://www.w3.org/2000/svg" xmlns:xlink="http://www.w3.org/1999/xlink" x="0px" y="0px"
	 viewBox="0 0 36 36" style="enable-background:new 0 0 36 36;" xml:space="preserve">
<style type="text/css">
	.st0{fill:#808080;}
</style>
<path class="st0" d="M32,4.8h-7h-7h-7H4c-0.6,0-1,0.4-1,1v25c0,0.6,0.4,1,1,1h7h7h7h7c0.6,0,1-0.4,1-1v-25C33,5.2,32.6,4.8,32,4.8z
	 M5,6.8h3.5v13H10v10H5V6.8z M12,19.8h1.5v-13h2v13H17v10h-5V19.8z M19,19.8h1.5v-13h2v13H24v10h-5V19.8z M31,29.8h-5v-10h1.6v-13
	H31V29.8z"/>
</svg>
