<?xml version="1.0" encoding="utf-8"?>
<svg version="1.1" id="Layer_1" xmlns="http://www.w3.org/2000/svg" xmlns:xlink="http://www.w3.org/1999/xlink" x="0px" y="0px"
	 viewBox="0 0 36 36" style="enable-background:new 0 0 36 36;" xml:space="preserve">
<style type="text/css">
	.st0{fill:#808080;}
</style>
<g id="Layer_1_1_">
	<path class="st0" d="M18.2,1.8L18.2,1.8c-8.8,0-16,7.2-16,16s7.2,16,16,16s16-7.2,16-16C34.2,8.9,27.1,1.8,18.2,1.8z M18.3,10
		c0-1.1,0.4-2.1,1.2-3.1C19.9,6.4,20.4,6,21,5.7s1.2-0.5,1.8-0.5c0,0.1,0,0.2,0,0.2v0.2c0,1.2-0.4,2.2-1.2,3.2
		c-1,1.2-2.1,1.7-3.3,1.6c0-0.1,0-0.2,0-0.2V10z M27.3,22.6c-0.1,0.2-0.1,0.3-0.2,0.5c-0.2,0.4-0.3,0.8-0.6,1.2
		c-0.2,0.4-0.4,0.7-0.6,1c-0.3,0.4-0.5,0.8-0.8,1.2c-0.2,0.3-0.5,0.6-0.7,0.8c-0.6,0.6-1.2,0.9-1.9,0.9c-0.5,0-1.1-0.2-1.8-0.5
		c-0.7-0.3-1.3-0.4-1.9-0.4c-0.7,0-1.3,0.1-2,0.4s-1.3,0.5-1.7,0.5c-0.7,0-1.3-0.3-2-0.9c-0.4-0.4-1-1.1-1.6-2
		c-0.7-1-1.2-2.2-1.7-3.5c-0.5-1.4-0.7-2.8-0.7-4.2c0-1.5,0.3-2.9,0.9-4c0.5-0.9,1.2-1.6,2-2.1s1.7-0.8,2.7-0.8
		c0.6,0,1.3,0.2,2.1,0.5c0.8,0.3,1.4,0.5,1.6,0.5c0.1,0,0.7-0.2,1.8-0.6c1-0.4,1.8-0.5,2.5-0.5c1.8,0.2,3.2,0.9,4.1,2.3
		c-1.7,1-2.5,2.5-2.4,4.4c0,1.4,0.5,2.7,1.5,3.6c0.5,0.4,1,0.8,1.5,1C27.4,22.3,27.4,22.4,27.3,22.6z"/>
</g>
</svg>
