<?xml version="1.0" encoding="utf-8"?>
<svg version="1.1" id="Layer_1" xmlns="http://www.w3.org/2000/svg" xmlns:xlink="http://www.w3.org/1999/xlink" x="0px" y="0px"
	 viewBox="0 0 36 36" style="enable-background:new 0 0 36 36;" xml:space="preserve">
<style type="text/css">
	.st0{fill:#808080;}
</style>
<g id="Layer_1_1_">
	<path class="st0" d="M18,2C9.2,2,2,9.2,2,18s7.2,16,16,16s16-7.2,16-16S26.8,2,18,2z M8.3,20.7C8.3,20.8,8.3,20.8,8.3,20.7
		c-0.1,0.1-0.2,0-0.2,0L8,19.5l0.1-1.2c0,0,0-0.1,0.1-0.1c0,0,0.1,0,0.1,0.1l0.2,1.2L8.3,20.7z M9,21.4C9,21.5,9,21.5,9,21.4
		c-0.1,0.1-0.2,0.1-0.2,0l-0.2-1.9l0.2-1.9c0-0.1,0-0.1,0.1-0.1c0,0,0.1,0,0.1,0.1l0.2,1.9L9,21.4z M9.9,21.7c0,0.1,0,0.1-0.1,0.1
		s-0.1,0-0.1-0.1l-0.2-2.2l0.2-2.3c0-0.1,0-0.1,0.1-0.1s0.1,0,0.1,0.1l0.2,2.3L9.9,21.7z M10.7,21.8c0,0.1-0.1,0.1-0.1,0.1
		c-0.1,0-0.1-0.1-0.1-0.1l-0.2-2.3l0.2-2.4c0-0.1,0.1-0.1,0.1-0.1c0.1,0,0.1,0.1,0.1,0.1l0.2,2.4L10.7,21.8z M11.5,21.8
		c0,0.1-0.1,0.1-0.1,0.1l-0.1-0.1L11,19.5l0.2-2.2c0-0.1,0.1-0.1,0.1-0.1l0.1,0.1l0.2,2.2L11.5,21.8z M12.3,21.8L12.3,21.8
		c0,0.1-0.1,0.2-0.2,0.2c-0.1,0-0.1-0.1-0.2-0.2l-0.2-2.3L12,16c0-0.1,0.1-0.2,0.2-0.2c0.1,0,0.1,0.1,0.2,0.2l0.2,3.6L12.3,21.8z
		 M13.1,21.8L13.1,21.8c0,0.1-0.1,0.2-0.2,0.2c-0.1,0-0.2-0.1-0.2-0.2l-0.1-2.3l0.1-4.4c0-0.1,0.1-0.2,0.2-0.2
		c0.1,0,0.2,0.1,0.2,0.2l0.2,4.4L13.1,21.8z M14,21.8L14,21.8c0,0.1-0.1,0.2-0.2,0.2c-0.1,0-0.2-0.1-0.2-0.2l-0.1-2.3l0.1-4.7
		c0-0.1,0.1-0.2,0.2-0.2c0.1,0,0.2,0.1,0.2,0.2l0.2,4.7L14,21.8z M14.8,21.8c0,0.1-0.1,0.2-0.2,0.2c-0.1,0-0.2-0.1-0.2-0.2l-0.1-2.2
		l0.1-4.9c0-0.1,0.1-0.2,0.2-0.2c0.1,0,0.2,0.1,0.2,0.2l0.1,4.9L14.8,21.8z M15.7,21.8c0,0.1-0.1,0.2-0.2,0.2
		c-0.1,0-0.2-0.1-0.2-0.2l-0.1-2.2l0.1-4.8c0-0.1,0.1-0.2,0.2-0.2c0.1,0,0.2,0.1,0.2,0.2l0.1,4.8L15.7,21.8z M16.5,21.7L16.5,21.7
		c0,0.1-0.1,0.3-0.2,0.3s-0.2-0.1-0.2-0.3L16,19.5l0.1-4.6c0-0.1,0.1-0.3,0.2-0.3s0.2,0.1,0.2,0.3l0.1,4.6L16.5,21.7z M17.4,21.7
		L17.4,21.7c0,0.1-0.1,0.3-0.3,0.3c-0.1,0-0.3-0.1-0.3-0.3l-0.1-2.2l0.1-5.5c0-0.1,0.1-0.3,0.3-0.3c0.1,0,0.3,0.1,0.3,0.3l0.1,5.5
		L17.4,21.7z M18.2,21.7L18.2,21.7c0,0.2-0.1,0.3-0.3,0.3c-0.1,0-0.3-0.1-0.3-0.3l-0.1-2.2l0.1-6c0-0.2,0.1-0.3,0.3-0.3
		c0.1,0,0.3,0.1,0.3,0.3l0.1,6L18.2,21.7z M25.5,22h-6.8c-0.1,0-0.3-0.2-0.3-0.3v-8.4c0-0.2,0.1-0.2,0.2-0.3c0.5-0.2,1-0.3,1.6-0.3
		c2.3,0,4.1,1.9,4.3,4.3c0.3-0.1,0.6-0.2,1-0.2c1.4,0,2.5,1.2,2.5,2.6C28,20.8,26.9,22,25.5,22z"/>
</g>
</svg>
