<?xml version="1.0" encoding="utf-8"?>
<svg version="1.1" id="Layer_1" xmlns="http://www.w3.org/2000/svg" xmlns:xlink="http://www.w3.org/1999/xlink" x="0px" y="0px"
	 viewBox="0 0 36 36" style="enable-background:new 0 0 36 36;" xml:space="preserve">
<style type="text/css">
	.st0{fill:#808080;}
</style>
<g id="Layer_1_1_">
	<path class="st0" d="M18,2C9.2,2,2,9.2,2,18s7.2,16,16,16s16-7.2,16-16S26.8,2,18,2z M27.9,13.5c-1.1,6.3-7.4,11.5-9.2,12.8
		c-1.9,1.2-3.6-0.5-4.2-1.8c-0.7-1.5-2.8-9.4-3.4-10c-0.6-0.7-2.2,0.7-2.2,0.7L8,14c0,0,3.4-4,6-4.5c2.7-0.5,2.7,4.2,3.4,6.8
		c0.6,2.5,1.1,4,1.6,4c0.6,0,1.6-1.4,2.8-3.6c1.2-2.2-0.1-4.1-2.3-2.7C20.4,8.6,29,7.2,27.9,13.5z"/>
</g>
</svg>
