<?xml version="1.0" encoding="utf-8"?>
<svg version="1.1" id="Layer_1" xmlns="http://www.w3.org/2000/svg" xmlns:xlink="http://www.w3.org/1999/xlink" x="0px" y="0px"
	 viewBox="0 0 36 36" style="enable-background:new 0 0 36 36;" xml:space="preserve">
<style type="text/css">
	.st0{fill:#808080;}
</style>
<g id="Layer_1_1_">
	<path class="st0" d="M18,1.7c-8.8,0-16,7.2-16,16s7.2,16,16,16s16-7.2,16-16C34,8.8,26.8,1.7,18,1.7z M25.6,14.2l-2.4,2.4l-8.8-8.9
		L25.6,14.2z M11.2,26.3V8.6c0-0.6,0.3-1.1,0.9-1.4l10.3,10.2L12,27.7C11.5,27.4,11.2,26.9,11.2,26.3z M14.4,27.2l8.8-8.9l2.4,2.4
		L14.4,27.2z M29.1,18.7L26.7,20l-2.6-2.6l2.6-2.6l2.4,1.4C29.8,16.8,29.8,18.1,29.1,18.7z"/>
</g>
</svg>
