<?xml version="1.0" encoding="utf-8"?>
<svg version="1.1" id="Layer_1" xmlns="http://www.w3.org/2000/svg" xmlns:xlink="http://www.w3.org/1999/xlink" x="0px" y="0px"
	 viewBox="0 0 36 36" style="enable-background:new 0 0 36 36;" xml:space="preserve">
<style type="text/css">
	.st0{fill:#808080;}
</style>
<g id="Layer_1_1_">
	<path class="st0" d="M18,1.7c-8.8,0-16,7.2-16,16s7.2,16,16,16s16-7.2,16-16C34,8.8,26.8,1.7,18,1.7z M25.5,15.1v7.7l-0.1,0.3
		c-0.3,1-1,1.7-1.9,2c-0.7,0.2-1.7,0.3-2.2,0.2c-0.3-0.1-0.6-0.2-0.8-0.4l-0.1-0.1c-0.5-0.5-0.7-1-0.7-1.7c0-0.4,0.1-0.6,0.2-1
		c0.2-0.5,0.6-0.8,1.2-1.1c0.5-0.2,0.9-0.3,2.1-0.6c0.8-0.2,1-0.2,1.2-0.4c0.2-0.2,0.2-0.2,0.2-4.1c0-3.4,0-3.6-0.1-3.7
		c0-0.1-0.1-0.1-0.1-0.1c-0.1-0.1-0.3-0.2-0.5-0.2s-8.1,1.6-8.3,1.6c-0.2,0.1-0.4,0.2-0.4,0.5c0,0.1,0,11-0.3,11.6
		c-0.1,0.2-0.2,0.4-0.3,0.5c-0.2,0.3-0.6,0.7-0.9,0.8c-0.7,0.4-2.1,0.6-2.9,0.4c-0.3-0.1-0.6-0.2-0.9-0.4c-0.3-0.3-0.5-0.6-0.6-0.9
		C9,25.5,9,24.9,9.1,24.5s0.3-0.8,0.6-1.1c0.5-0.5,1.1-0.7,2.8-1.1c0.4-0.1,0.7-0.2,0.8-0.2c0.2-0.1,0.4-0.3,0.5-0.5
		c0.1-0.1,0.1-12.2,0.1-12.2L14,9.3c0.1-0.2,0.3-0.4,0.5-0.5c0.1-0.1,8.3-1.7,9.7-1.9c0.3-0.1,0.6-0.1,0.7-0.1s0.3,0,0.4,0.1
		s0.1,0.2,0.2,0.3C25.5,7.3,25.5,9.3,25.5,15.1z"/>
</g>
</svg>
