<?xml version="1.0" encoding="utf-8"?>
<svg version="1.1" id="Layer_1" xmlns="http://www.w3.org/2000/svg" xmlns:xlink="http://www.w3.org/1999/xlink" x="0px" y="0px"
	 viewBox="0 0 36 36" style="enable-background:new 0 0 36 36;" xml:space="preserve">
<style type="text/css">
	.st0{fill:#808080;}
</style>
<g id="Layer_1_1_">
	<g>
		<polygon class="st0" points="15.9,20.7 21.3,17.8 15.9,14.8 		"/>
		<path class="st0" d="M18,2C9.2,2,2,9.2,2,18s7.2,16,16,16s16-7.2,16-16S26.8,2,18,2z M28,18.8c0,1.7-0.2,3.4-0.2,3.4
			s-0.2,1.4-0.8,2.1c-0.8,0.8-1.6,0.8-2,0.9c-2.8,0.2-7,0.2-7,0.2s-5.2-0.1-6.8-0.2c-0.4-0.2-1.4-0.1-2.2-1
			c-0.6-0.6-0.8-2.1-0.8-2.1S8,20.5,8,18.8v-1.6c0-1.7,0.2-3.4,0.2-3.4s0.2-1.4,0.8-2.1c0.8-0.8,1.6-0.8,2-0.9c2.8-0.2,7-0.2,7-0.2
			l0,0c0,0,4.2,0,7,0.2c0.4,0,1.2,0.1,2,0.9c0.6,0.6,0.8,2.1,0.8,2.1s0.2,1.7,0.2,3.4V18.8z"/>
	</g>
</g>
</svg>
