<?xml version="1.0" encoding="utf-8"?>
<svg version="1.1" id="Layer_1" xmlns="http://www.w3.org/2000/svg" xmlns:xlink="http://www.w3.org/1999/xlink" x="0px" y="0px"
	 viewBox="0 0 60 60" style="enable-background:new 0 0 60 60;" xml:space="preserve">
<style type="text/css">
	.st0{fill:#FFFFFF;}
</style>
<g id="Layer_1_1_">
	<g>
		<path class="st0" d="M30,5.3c13.8,0,25,11.2,25,25s-11.2,25-25,25S5,44,5,30.3S16.2,5.3,30,5.3 M30,3.3c-14.9,0-27,12.1-27,27
			s12.1,27,27,27s27-12.1,27-27S44.9,3.3,30,3.3L30,3.3z"/>
	</g>
	<g>
		<path class="st0" d="M21.9,17.7l21.5,12.5L21.9,42.8V17.7 M19.9,14.3v32l27.4-16L19.9,14.3L19.9,14.3z"/>
	</g>
</g>
</svg>
