<?xml version="1.0" encoding="utf-8"?>
<svg version="1.1" id="Layer_1" xmlns="http://www.w3.org/2000/svg" xmlns:xlink="http://www.w3.org/1999/xlink" x="0px" y="0px"
	 viewBox="0 0 36 36" style="enable-background:new 0 0 36 36;" xml:space="preserve">
<style type="text/css">
	.st0{fill:#808080;}
</style>
<g id="Layer_1_1_">
	<g>
		<path class="st0" d="M22.3,16.6c-1.1,0-1.7,0.9-1.7,2.3c0,1.3,0.6,2.3,1.7,2.3c1.2,0,1.7-1.1,1.7-2.3S23.4,16.6,22.3,16.6z"/>
		<path class="st0" d="M18,1.7c-8.8,0-16,7.2-16,16s7.2,16,16,16s16-7.2,16-16S26.8,1.7,18,1.7z M22.7,22.2c-0.8,0-1.7-0.2-2.1-1.1
			l0,0V22h-1.3v-8.8L14.5,22H4.3L9,13.2h10.2l0,0l0,0l0,0h1.4v3.3l0,0c0.4-0.6,1.1-1,1.8-1c1.9,0,2.9,1.5,2.9,3.4
			C25.4,20.6,24.5,22.2,22.7,22.2z M31.8,17.8h-1.4l0,0c-0.1-0.8-0.7-1.2-1.4-1.2c-0.7,0-1.7,0.4-1.7,2.3c0,1.1,0.5,2.2,1.6,2.2
			c0.8,0,1.3-0.5,1.5-1.5h1.4c-0.3,1.7-1.2,2.6-2.8,2.6c-1.9,0-3-1.4-3-3.3s1-3.4,3-3.4C30.4,15.5,31.6,16.2,31.8,17.8z"/>
	</g>
</g>
</svg>
