<?xml version="1.0" encoding="utf-8"?>
<svg version="1.1" id="Layer_1" xmlns="http://www.w3.org/2000/svg" xmlns:xlink="http://www.w3.org/1999/xlink" x="0px" y="0px"
	 viewBox="0 0 36 36" style="enable-background:new 0 0 36 36;" xml:space="preserve">
<style type="text/css">
	.st0{fill:#808080;}
</style>
<g id="Layer_1_1_">
	<path class="st0" d="M18.2,1.8c-8.8,0-16,7.2-16,16s7.2,16,16,16s16-7.2,16-16C34.2,8.9,27.1,1.8,18.2,1.8L18.2,1.8z M25.6,24.8
		c-0.3,0.5-0.9,0.6-1.4,0.3c-3.8-2.3-8.5-2.8-14.1-1.5c-0.5,0.1-1.1-0.2-1.2-0.8c-0.1-0.5,0.2-1.1,0.8-1.2
		c6.1-1.4,11.3-0.8,15.5,1.8C25.7,23.8,25.9,24.4,25.6,24.8z M27.5,20.5c-0.4,0.6-1.1,0.8-1.7,0.4C21.5,18.3,15,17.5,9.9,19
		c-0.7,0.2-1.4-0.2-1.6-0.8c-0.2-0.7,0.2-1.4,0.8-1.6c5.8-1.8,13-0.9,18,2.1C27.7,19.1,27.9,19.9,27.5,20.5L27.5,20.5z M27.7,16
		c-5.2-3.1-13.7-3.3-18.6-1.9c-0.8,0.2-1.6-0.2-1.9-1c-0.2-0.8,0.2-1.6,1-1.9c5.7-1.7,15-1.4,21,2.1c0.7,0.4,0.9,1.3,0.5,2.1
		C29.3,16.1,28.4,16.4,27.7,16L27.7,16z"/>
</g>
</svg>
