<?xml version="1.0" encoding="utf-8"?>
<!-- Generator: Adobe Illustrator 24.2.1, SVG Export Plug-In . SVG Version: 6.00 Build 0)  -->
<svg version="1.1" id="Layer_1" xmlns="http://www.w3.org/2000/svg" xmlns:xlink="http://www.w3.org/1999/xlink" x="0px" y="0px"
	 viewBox="0 0 36 36" style="enable-background:new 0 0 36 36;" xml:space="preserve">
<style type="text/css">
	.st0{display:none;}
	.st1{display:inline;}
	.st2{fill-rule:evenodd;clip-rule:evenodd;fill:#808080;}
</style>
<g id="BG">
</g>
<g id="Slider_BG">
</g>
<g id="Layer_7">
</g>
<g id="Screen" class="st0">
</g>
<g id="specctr" class="st0">
	<g id="Dimensions" class="st1">
	</g>
	<g id="Text_Properties" class="st1">
	</g>
	<g id="Spacing" class="st1">
	</g>
	<g id="Object_Properties" class="st1">
	</g>
</g>
<path class="st2" d="M18.2,1.8c-8.8,0-16,7.2-16,16s7.2,16,16,16s16-7.2,16-16C34.2,8.9,27.1,1.8,18.2,1.8z M11.6,25.1H6.8v-2.8h4.8
	V25.1z M17.5,25.1h-4.8v-2.8h4.8V25.1z M17.5,21.1h-4.8v-2.8h4.8V21.1z M17.5,17.2h-4.8v-2.8h4.8V17.2z M23.3,25.1h-4.8v-2.8h4.8
	V25.1z M23.3,21.1h-4.8v-2.8h4.8V21.1z M29.1,25.1h-4.8v-2.8h4.8V25.1z M29.1,21.1h-4.8v-2.8h4.8V21.1z M29.1,17.2h-4.8v-2.8h4.8
	V17.2z M29.1,13.3h-4.8v-2.8h4.8V13.3z"/>
</svg>
