<?xml version="1.0" encoding="utf-8"?>
<!-- Generator: Adobe Illustrator 24.0.0, SVG Export Plug-In . SVG Version: 6.00 Build 0)  -->
<svg version="1.1" id="Layer_1" xmlns="http://www.w3.org/2000/svg" x="0px" y="0px"
	 viewBox="0 0 210 40" style="enable-background:new 0 0 210 40;">
<style type="text/css">
	.st0{fill:#010101;}
	.st1{fill:#972041;}
</style>
<g>
	<circle class="st0" cx="10.5" cy="12.2" r="1.6"/>
	<circle class="st1" cx="18.5" cy="12.2" r="1.6"/>
	<circle class="st0" cx="26.5" cy="12.2" r="1.6"/>
	<circle class="st1" cx="10.5" cy="20.2" r="1.6"/>
	<circle class="st0" cx="18.5" cy="20.2" r="1.6"/>
	<circle class="st1" cx="18.5" cy="28.4" r="1.6"/>
	<circle class="st1" cx="26.5" cy="20.2" r="1.6"/>
	<circle class="st0" cx="10.5" cy="28.2" r="1.6"/>
	<circle class="st0" cx="26.5" cy="28.2" r="1.6"/>
</g>
<g>
	<g>
		<path class="st0" d="M46.3,15.8c0-3.1-1.5-4.7-4.3-4.7h-4.1c-0.1,0-0.1,0.1-0.1,0.1V30c0,0.1,0.1,0.1,0.1,0.1h2.1
			c0.1,0,0.1-0.1,0.1-0.1v-7.6c0-0.1,0.1-0.1,0.1-0.1h1.6c3,0,4.5-1.6,4.5-4.6V15.8z M44,17.7c0,1.7-0.7,2.4-2.2,2.4h-1.6
			c-0.1,0-0.1-0.1-0.1-0.1v-6.6c0-0.1,0.1-0.1,0.1-0.1h1.8c1.4,0,2,0.8,2,2.4V17.7z"/>
		<path class="st0" d="M52.5,25.6l4,0c0,0,0,0,0,0c0.1,0,0.1,0,0.1,0.1l0.8,4.3c0,0.1,0.1,0.1,0.1,0.1h2.1c0,0,0.1,0,0.1,0
			c0,0,0-0.1,0-0.1l-3.6-18.7c0-0.1-0.1-0.1-0.1-0.1h-3c-0.1,0-0.1,0-0.1,0.1L49.4,30c0,0,0,0.1,0,0.1c0,0,0.1,0,0.1,0h1.9
			c0.1,0,0.1,0,0.1-0.1l0.8-4.3C52.4,25.7,52.5,25.6,52.5,25.6z M54.4,14.9c0-0.1,0.1-0.1,0.1-0.1c0.1,0,0.1,0,0.1,0.1l1.7,8.5
			c0,0,0,0.1,0,0.1s-0.1,0-0.1,0l-3.3,0c0,0,0,0,0,0c0,0-0.1,0-0.1,0c0,0,0-0.1,0-0.1L54.4,14.9z"/>
		<path class="st0" d="M71.4,13.3c0.1,0,0.1-0.1,0.1-0.1v-1.9c0-0.1-0.1-0.1-0.1-0.1h-9c-0.1,0-0.1,0.1-0.1,0.1v1.9
			c0,0.1,0.1,0.1,0.1,0.1h3.2c0.1,0,0.1,0.1,0.1,0.1V30c0,0.1,0.1,0.1,0.1,0.1h2.1c0.1,0,0.1-0.1,0.1-0.1V13.4
			c0-0.1,0.1-0.1,0.1-0.1H71.4z"/>
		<path class="st0" d="M84,13.3c0.1,0,0.1-0.1,0.1-0.1v-1.9c0-0.1-0.1-0.1-0.1-0.1h-9c-0.1,0-0.1,0.1-0.1,0.1v1.9
			c0,0.1,0.1,0.1,0.1,0.1h3.2c0.1,0,0.1,0.1,0.1,0.1V30c0,0.1,0.1,0.1,0.1,0.1h2.1c0.1,0,0.1-0.1,0.1-0.1V13.4
			c0-0.1,0.1-0.1,0.1-0.1H84z"/>
		<path class="st0" d="M88.5,30.1h7.7c0.1,0,0.1-0.1,0.1-0.1v-1.9c0-0.1-0.1-0.1-0.1-0.1h-5.4c-0.1,0-0.1-0.1-0.1-0.1v-6.2
			c0-0.1,0.1-0.1,0.1-0.1h4.3c0.1,0,0.1-0.1,0.1-0.1v-1.9c0-0.1-0.1-0.1-0.1-0.1h-4.3c-0.1,0-0.1-0.1-0.1-0.1v-5.9
			c0-0.1,0.1-0.1,0.1-0.1h5.4c0.1,0,0.1-0.1,0.1-0.1v-1.9c0-0.1-0.1-0.1-0.1-0.1h-7.7c-0.1,0-0.1,0.1-0.1,0.1V30
			C88.4,30.1,88.5,30.1,88.5,30.1z"/>
		<path class="st0" d="M108,30h2.1c0,0,0.1,0,0.1,0c0,0,0-0.1,0-0.1l0-5.2c0-2.1-0.7-3.6-1.9-4.3c0,0-0.1-0.1-0.1-0.1s0-0.1,0.1-0.1
			c1.2-0.6,1.8-1.8,1.8-3.7v-1c0-3-1.4-4.4-4.3-4.4h-4.2c-0.1,0-0.1,0.1-0.1,0.1v18.7c0,0.1,0.1,0.1,0.1,0.1h2.1
			c0.1,0,0.1-0.1,0.1-0.1v-8.2c0-0.1,0.1-0.1,0.1-0.1h1.2c2.2,0,2.6,1.7,2.6,3.1v5.2C107.9,30,107.9,30,108,30z M105.3,19.5H104
			c-0.1,0-0.1-0.1-0.1-0.1v-6c0-0.1,0.1-0.1,0.1-0.1h1.8c1.4,0,2,0.8,2,2.4V17C107.9,19.1,106.9,19.5,105.3,19.5z"/>
		<path class="st0" d="M117.9,16.4l4.3,13.6c0,0.1,0.1,0.1,0.1,0.1h2.2c0.1,0,0.1-0.1,0.1-0.1V11.3c0-0.1-0.1-0.1-0.1-0.1h-1.8
			c-0.1,0-0.1,0.1-0.1,0.1v11.9c0,0.1,0,0.1-0.1,0.1c-0.1,0-0.1,0-0.1-0.1l-3.8-12c0-0.1-0.1-0.1-0.1-0.1h-2.6
			c-0.1,0-0.1,0.1-0.1,0.1V30c0,0.1,0.1,0.1,0.1,0.1h1.9c0.1,0,0.1-0.1,0.1-0.1V16.5c0-0.1,0-0.1,0.1-0.1c0,0,0,0,0,0
			C117.8,16.3,117.9,16.4,117.9,16.4z"/>
	</g>
	<g>
		<path class="st1" d="M139.1,23.5c0-2-0.7-3.3-2-3.9c0,0-0.1-0.1-0.1-0.1s0-0.1,0.1-0.1c1.1-0.6,1.7-1.7,1.7-3.6v-0.4
			c0-2.9-1.3-4.3-4.2-4.3h-4.2c-0.1,0-0.1,0.1-0.1,0.1V30c0,0.1,0.1,0.1,0.1,0.1h4.3c2.9,0,4.4-1.6,4.4-4.5V23.5z M132.6,13.4
			c0-0.1,0.1-0.1,0.1-0.1h1.8c1.4,0,1.9,0.7,1.9,2.3v0.6c0,2-0.9,2.4-2.4,2.4h-1.4c-0.1,0-0.1-0.1-0.1-0.1V13.4z M136.8,25.6
			c0,1.7-0.6,2.4-2.1,2.4h-2c-0.1,0-0.1-0.1-0.1-0.1v-7c0-0.1,0.1-0.1,0.1-0.1h1.6c1.8,0,2.5,0.7,2.5,2.7V25.6z"/>
		<path class="st1" d="M146.2,25.6l4,0c0,0,0,0,0,0c0.1,0,0.1,0,0.1,0.1l0.8,4.3c0,0.1,0.1,0.1,0.1,0.1h2.1c0,0,0.1,0,0.1,0
			c0,0,0-0.1,0-0.1l-3.6-18.7c0-0.1-0.1-0.1-0.1-0.1h-3c-0.1,0-0.1,0-0.1,0.1L143.1,30c0,0,0,0.1,0,0.1c0,0,0.1,0,0.1,0h1.9
			c0.1,0,0.1,0,0.1-0.1l0.8-4.3C146.1,25.7,146.1,25.6,146.2,25.6z M148.1,14.9c0-0.1,0.1-0.1,0.1-0.1c0.1,0,0.1,0,0.1,0.1l1.7,8.5
			c0,0,0,0.1,0,0.1s-0.1,0-0.1,0l-3.3,0c0,0,0,0,0,0c0,0-0.1,0-0.1,0c0,0,0-0.1,0-0.1L148.1,14.9z"/>
		<path class="st1" d="M162.7,19.8L162.7,19.8L162.7,19.8c-1.5-1.2-2.8-2.3-2.8-4.2c0-1.7,0.7-2.5,2-2.5s2,0.9,2,2.6v0.6
			c0,0.1,0.1,0.1,0.1,0.1h2c0.1,0,0.1-0.1,0.1-0.1v-0.5c0-3.1-1.6-4.8-4.3-4.8c-2.8,0-4.3,1.7-4.3,4.8c0,2.8,1.8,4.3,3.5,5.7
			c1.4,1.2,2.8,2.3,2.8,4.2c0,2.1-1.1,2.6-2.1,2.6s-2.1-0.4-2.1-2.6v-1.2c0-0.1-0.1-0.1-0.1-0.1h-2c-0.1,0-0.1,0.1-0.1,0.1v1.1
			c0,3.1,1.6,4.8,4.3,4.8c2.8,0,4.4-1.8,4.4-4.8C166.1,22.7,164.3,21.2,162.7,19.8z"/>
		<path class="st1" d="M170.7,30.1h7.7c0.1,0,0.1-0.1,0.1-0.1v-1.9c0-0.1-0.1-0.1-0.1-0.1H173c-0.1,0-0.1-0.1-0.1-0.1v-6.2
			c0-0.1,0.1-0.1,0.1-0.1h4.3c0.1,0,0.1-0.1,0.1-0.1v-1.9c0-0.1-0.1-0.1-0.1-0.1H173c-0.1,0-0.1-0.1-0.1-0.1v-5.9
			c0-0.1,0.1-0.1,0.1-0.1h5.4c0.1,0,0.1-0.1,0.1-0.1v-1.9c0-0.1-0.1-0.1-0.1-0.1h-7.7c-0.1,0-0.1,0.1-0.1,0.1V30
			C170.6,30.1,170.6,30.1,170.7,30.1z"/>
		<path class="st1" d="M191.9,15.9c0-3.1-1.6-4.8-4.4-4.8h-4.4c-0.1,0-0.1,0.1-0.1,0.1V30c0,0.1,0.1,0.1,0.1,0.1h4.4
			c2.8,0,4.4-1.7,4.4-4.8V15.9z M189.6,25.4c0,1.7-0.7,2.5-2.1,2.5h-2c-0.1,0-0.1-0.1-0.1-0.1V13.4c0-0.1,0.1-0.1,0.1-0.1h2
			c1.4,0,2.1,0.8,2.1,2.5V25.4z"/>
	</g>
</g>
<g>
	<path class="st0" d="M195.5,11.8h-1v-0.4h2.5v0.4h-1v3h-0.4V11.8z"/>
	<path class="st0" d="M200.2,13.3c0-0.5-0.1-1,0-1.5h0c-0.1,0.4-0.3,0.8-0.4,1.3l-0.6,1.6h-0.3l-0.5-1.6c-0.2-0.5-0.3-0.9-0.4-1.3h0
		c0,0.4,0,1-0.1,1.5l-0.1,1.4h-0.4l0.2-3.4h0.6l0.6,1.6c0.1,0.4,0.3,0.8,0.3,1.1h0c0.1-0.3,0.2-0.7,0.4-1.1l0.6-1.6h0.6l0.2,3.4
		h-0.4L200.2,13.3z"/>
</g>
</svg>
