<?xml version="1.0" encoding="utf-8"?>
<!-- Generator: Adobe Illustrator 24.0.0, SVG Export Plug-In . SVG Version: 6.00 Build 0)  -->
<svg version="1.1" id="Layer_1" xmlns="http://www.w3.org/2000/svg" xmlns:xlink="http://www.w3.org/1999/xlink" x="0px" y="0px"
	 viewBox="0 0 36 36" style="enable-background:new 0 0 36 36;" xml:space="preserve">
<style type="text/css">
	.st0{fill:#FFFFFF;}
</style>
<g id="Capa_3">
	<g>
		<circle cx="18" cy="18" r="16"/>
		<path class="st0" d="M17.8,27.5C17.8,27.5,17.8,27.5,17.8,27.5c-4.5,0-8-2.9-9.1-7.2c-0.1-0.5,0.2-1,0.7-1.1
			c0.5-0.1,1,0.2,1.1,0.7c1.1,4.3,4.6,5.8,7.3,5.8c2.8,0,6.5-1.5,7.8-6c0.1-0.5,0.6-0.8,1.1-0.6c0.5,0.1,0.8,0.6,0.6,1.1
			C25.9,25.3,21.6,27.5,17.8,27.5z"/>
	</g>
</g>
</svg>
