<?xml version="1.0" encoding="utf-8"?>
<!-- Generator: Adobe Illustrator 24.0.0, SVG Export Plug-In . SVG Version: 6.00 Build 0)  -->
<svg version="1.1" id="Layer_1" xmlns="http://www.w3.org/2000/svg" xmlns:xlink="http://www.w3.org/1999/xlink" x="0px" y="0px"
	 viewBox="0 0 36 36" style="enable-background:new 0 0 36 36;" xml:space="preserve">
<style type="text/css">
	.st0{fill:#235B9E;}
	.st1{fill:#FFFFFF;}
</style>
<g id="Layer_fb">
	<g>
		<path class="st0" d="M34,18c0,8.8-7.2,16-16,16S2,26.8,2,18S9.2,2,18,2S34,9.2,34,18z"/>
		<g>
			<path class="st1" d="M15.3,28h4c0,0,0-5.5,0-10h3l0.4-4h-3.2v-1.6c0-0.8,0.5-1,0.9-1s2.2,0,2.2,0V8h-3.1c-3.4,0-4.2,2.6-4.2,4.2
				V14h-2v4h2C15.3,22.5,15.3,28,15.3,28z"/>
		</g>
	</g>
</g>
</svg>
