<?xml version="1.0" encoding="utf-8"?>
<svg version="1.1" id="Layer_1" xmlns="http://www.w3.org/2000/svg" xmlns:xlink="http://www.w3.org/1999/xlink" x="0px" y="0px"
	 viewBox="0 0 36 36" style="enable-background:new 0 0 36 36;" xml:space="preserve">
<style type="text/css">
	.st0{fill:#595959;}
	.st1{fill:#FFFFFF;}
</style>
<g id="Layer_git">
	<g>
		<path class="st0" d="M34,18c0,8.8-7.2,16-16,16S2,26.8,2,18S9.2,2,18,2S34,9.2,34,18z"/>
		<path id="path9-5_4_" class="st1" d="M10.9,17.8c0,0,0.3,0.8,0.4,0.8c0.8,1.5,2.4,2.4,5,2.7c-0.4,0.3-0.8,0.8-0.9,1.5
			c-0.5,0.3-1.4,0.4-2.2,0.2c-1-0.3-1.4-2.4-3-2.1c-0.3,0.1-0.3,0.3,0,0.5c0.5,0.3,0.9,0.7,1.3,1.5c0.3,0.6,0.8,1.8,2.6,1.8
			c0.7,0,1.2-0.1,1.2-0.1s0,1.6,0,2.2c0,0.7-1,0.9-1,1.3c0,0.1,0.3,0.1,0.6,0.1c0.5,0,1.6-0.4,1.6-1.2c0-0.6,0-2.6,0-2.9
			c0-0.8,0.4-1,0.4-1s0.1,4.1-0.1,4.6c-0.2,0.6-0.5,0.6-0.5,0.8c0,0.4,1.3,0.1,1.7-0.8c0.3-0.7,0.2-4.7,0.2-4.7h0.3c0,0,0,1.8,0,2.7
			c0,0.9-0.1,2,0.4,2.5c0.3,0.3,1.4,0.9,1.4,0.4c0-0.3-0.6-0.6-0.6-1.4v-4c0.5,0,0.4,1.3,0.4,1.3v2.4c0,0-0.1,0.9,1,1.2
			c0.4,0.1,1.2,0.2,1.2-0.1c0-0.2-1-0.5-1-1.2c0-0.4,0-0.7,0-2.5s-0.2-2.5-1.1-3c2.6-0.3,4.2-0.9,5-2.6c0.1,0,0.3-0.8,0.3-0.8
			c0.2-0.7,0.3-1.4,0.3-2.3c0-2.5-1.2-3.4-1.4-3.8c0.3-1.9-0.1-2.7-0.2-3C23.5,8.6,21.9,9.4,21,10c-1.5-0.4-4.6-0.4-5.8,0.1
			C13.1,8.5,12,8.7,12,8.7S11.2,10,11.8,12c-0.7,0.9-1.2,1.6-1.2,3.3C10.5,16.2,10.7,17.1,10.9,17.8L10.9,17.8z"/>
	</g>
</g>
</svg>
