<?xml version="1.0" encoding="utf-8"?>
<svg version="1.1" id="Layer_1" xmlns="http://www.w3.org/2000/svg" xmlns:xlink="http://www.w3.org/1999/xlink" x="0px" y="0px"
	 viewBox="0 0 36 36" style="enable-background:new 0 0 36 36;" xml:space="preserve">
<style type="text/css">
	.st0{fill:#2D80A6;}
	.st1{fill:#FFFFFF;}
</style>
<g id="Layer_1_1_ig">
	<g>
		<path class="st0" d="M34,18c0,8.8-7.2,16-16,16S2,26.8,2,18S9.2,2,18,2S34,9.2,34,18z"/>
		<g>
			<path class="st1" d="M24.1,8H11.9C9.7,8,8,9.7,8,11.9V16v8.2c0,2.1,1.7,3.9,3.9,3.9h12.3c2.1,0,3.9-1.7,3.9-3.9V16v-4.1
				C28,9.7,26.3,8,24.1,8z M25.2,10.3h0.4v0.4v2.9h-3.4v-3.4L25.2,10.3z M15.1,15.9c0.6-0.9,1.7-1.5,2.9-1.5s2.2,0.6,2.9,1.5
				c0.4,0.6,0.7,1.3,0.7,2.1c0,1.9-1.6,3.5-3.5,3.5s-3.5-1.6-3.5-3.5C14.5,17.2,14.7,16.5,15.1,15.9z M26.1,24.1
				c0,1.1-0.9,1.9-1.9,1.9H11.9c-1.1,0-1.9-0.9-1.9-1.9v-8.2h3c-0.3,0.6-0.4,1.3-0.4,2.1c0,3,2.5,5.5,5.5,5.5s5.5-2.5,5.5-5.5
				c0-0.7-0.1-1.4-0.4-2.1h3v8.2H26.1z"/>
		</g>
	</g>
</g>
</svg>
