<?xml version="1.0" encoding="utf-8"?>
<!-- Generator: Adobe Illustrator 24.2.1, SVG Export Plug-In . SVG Version: 6.00 Build 0)  -->
<svg version="1.1" id="Layer_1" xmlns="http://www.w3.org/2000/svg" xmlns:xlink="http://www.w3.org/1999/xlink" x="0px" y="0px"
	 viewBox="0 0 36 36" style="enable-background:new 0 0 36 36;" xml:space="preserve" fill="#fff">
<style type="text/css">
	.st0{fill:#0065A1;}
	.st1{fill-rule:evenodd;clip-rule:evenodd;fill:#FFFFFF;}
</style>
<path class="st0" d="M34,18c0,8.8-7.2,16-16,16C9.2,34,2,26.8,2,18C2,9.2,9.2,2,18,2C26.8,2,34,9.2,34,18z"/>
<path class="st1" d="M14.3,24.6v-10H11v10H14.3L14.3,24.6z M12.7,13.2c1.2,0,1.9-0.8,1.9-1.7c0-1-0.7-1.7-1.9-1.7
	c-1.1,0-1.9,0.8-1.9,1.7C10.8,12.4,11.5,13.2,12.7,13.2L12.7,13.2L12.7,13.2z"/>
<path class="st1" d="M16.2,24.6h3.3V19c0-0.3,0-0.6,0.1-0.8c0.2-0.6,0.8-1.2,1.7-1.2c1.2,0,1.7,0.9,1.7,2.3v5.4h3.3v-5.8
	c0-3.1-1.6-4.5-3.8-4.5c-1.8,0-2.6,1-3,1.7h0v-1.5h-3.3C16.2,15.5,16.2,24.6,16.2,24.6L16.2,24.6z"/>
</svg>
