<?xml version="1.0" encoding="utf-8"?>
<svg version="1.1" id="Layer_1" xmlns="http://www.w3.org/2000/svg" xmlns:xlink="http://www.w3.org/1999/xlink" x="0px" y="0px"
	 viewBox="0 0 36 36" style="enable-background:new 0 0 36 36;" xml:space="preserve">
<style type="text/css">
	.st0{fill:#FF5E00;}
	.st1{fill:#FFFFFF;}
</style>
<g id="Layer_1_1_">
	<g>
		<path class="st0" d="M34,18c0,8.8-7.2,16-16,16S2,26.8,2,18S9.2,2,18,2S34,9.2,34,18z"/>
		<g fill="white">
			<path class="st1" d="M25.5,16.7c-0.3,0-0.7,0.1-1,0.2c-0.2-2.4-2.1-4.3-4.3-4.3c-0.6,0-1.1,0.1-1.6,0.3c-0.2,0.1-0.2,0.2-0.2,0.3
				v8.4c0,0.2,0.1,0.3,0.3,0.3h6.8c1.4,0,2.5-1.2,2.5-2.6C28,17.9,26.9,16.7,25.5,16.7z"/>
			<path class="st1" d="M12.5,19.5L12.3,16c0-0.1-0.1-0.2-0.2-0.2c-0.1,0-0.1,0.1-0.2,0.2l-0.2,3.6l0.2,2.3c0,0.1,0.1,0.2,0.2,0.2
				c0.1,0,0.1-0.1,0.2-0.2l0,0L12.5,19.5z"/>
			<path class="st1" d="M11.7,19.5l-0.2-2.2c0-0.1-0.1-0.1-0.1-0.1l-0.1,0.1L11,19.5l0.2,2.3c0,0.1,0.1,0.1,0.1,0.1l0.1-0.1l0,0
				L11.7,19.5z"/>
			<path class="st1" d="M13.3,19.5l-0.2-4.4c0-0.1-0.1-0.2-0.2-0.2c-0.1,0-0.2,0.1-0.2,0.2l-0.1,4.4l0.1,2.3c0,0.1,0.1,0.2,0.2,0.2
				c0.1,0,0.2-0.1,0.2-0.2l0,0L13.3,19.5z"/>
			<path class="st1" d="M9,21.5L9,21.5l0.3-2L9,17.6c0-0.1,0-0.1-0.1-0.1c0,0-0.1,0-0.1,0.1l-0.2,1.9L9,21.5
				C8.9,21.5,8.9,21.5,9,21.5z"/>
			<path class="st1" d="M9.8,21.8c0.1,0,0.1,0,0.1-0.1l0.2-2.2l-0.2-2.3c0-0.1,0-0.1-0.1-0.1s-0.1,0-0.1,0.1l-0.2,2.3l0.2,2.2
				C9.7,21.8,9.7,21.8,9.8,21.8z"/>
			<path class="st1" d="M14.8,14.6c0-0.1-0.1-0.2-0.2-0.2c-0.1,0-0.2,0.1-0.2,0.2l-0.1,4.9l0.1,2.2c0,0.1,0.1,0.2,0.2,0.2
				c0.1,0,0.2-0.1,0.2-0.2l0,0l0.1-2.2L14.8,14.6z"/>
			<path class="st1" d="M10.5,21.9c0.1,0,0.1-0.1,0.1-0.1l0.2-2.3l-0.2-2.4c0-0.1-0.1-0.1-0.1-0.1c-0.1,0-0.1,0.1-0.1,0.1l-0.2,2.4
				l0.2,2.3C10.4,21.9,10.5,21.9,10.5,21.9z"/>
			<path class="st1" d="M14.1,19.5L14,14.8c0-0.1-0.1-0.2-0.2-0.2c-0.1,0-0.2,0.1-0.2,0.2l-0.1,4.7l0.1,2.3c0,0.1,0.1,0.2,0.2,0.2
				c0.1,0,0.2-0.1,0.2-0.2l0,0L14.1,19.5z"/>
			<path class="st1" d="M15.8,19.5l-0.1-4.8c0-0.1-0.1-0.2-0.2-0.2c-0.1,0-0.2,0.1-0.2,0.2l-0.1,4.8l0.1,2.2c0,0.1,0.1,0.2,0.2,0.2
				c0.1,0,0.2-0.1,0.2-0.2l0,0L15.8,19.5z"/>
			<path class="st1" d="M8.2,18.2C8.2,18.2,8.2,18.3,8.2,18.2L8,19.5l0.1,1.2c0,0,0,0.1,0.1,0.1c0,0,0.1,0,0.1-0.1l0.2-1.2L8.2,18.2
				C8.3,18.3,8.3,18.2,8.2,18.2z"/>
			<path class="st1" d="M17.5,19.5L17.4,14c0-0.1-0.1-0.3-0.3-0.3c-0.1,0-0.3,0.1-0.3,0.3l-0.1,5.5l0.1,2.2c0,0.1,0.1,0.3,0.3,0.3
				c0.1,0,0.3-0.1,0.3-0.3l0,0L17.5,19.5z"/>
			<path class="st1" d="M18,13.3c-0.1,0-0.3,0.1-0.3,0.3l-0.1,6l0.1,2.2c0,0.2,0.1,0.3,0.3,0.3c0.1,0,0.3-0.1,0.3-0.3l0,0l0.1-2.2
				l-0.1-6C18.2,13.4,18.1,13.3,18,13.3z"/>
			<path class="st1" d="M16.6,19.5l-0.1-4.6c0-0.1-0.1-0.3-0.2-0.3s-0.2,0.1-0.2,0.3L16,19.5l0.1,2.2c0,0.1,0.1,0.3,0.2,0.3
				s0.2-0.1,0.2-0.3l0,0L16.6,19.5z"/>
		</g>
		
	</g>
</g>
</svg>
