<?xml version="1.0" encoding="utf-8"?>
<svg version="1.1" id="Layer_1" xmlns="http://www.w3.org/2000/svg" xmlns:xlink="http://www.w3.org/1999/xlink" x="0px" y="0px"
	 viewBox="0 0 36 36" style="enable-background:new 0 0 36 36;" xml:space="preserve">
<style type="text/css">
	.st0{fill:#0F4260;}
	.st1{fill:#FFFFFF;}
</style>
<g id="Layer_1_1_tmblr">
	<g>
		<path class="st0" d="M34,18c0,8.8-7.2,16-16,16S2,26.8,2,18S9.2,2,18,2S34,9.2,34,18z"/>
		<g>
			<path class="st1" d="M14.9,25.3c0.2,0.5,0.5,0.9,1,1.4c0.5,0.4,1,0.8,1.7,1s1.2,0.3,2.1,0.3c0.8,0,1.5-0.1,2.1-0.2
				c0.7-0.2,1.4-0.4,2.2-0.8v-3.2c-1,0.7-1.9,1-2.9,1c-0.5,0-1-0.1-1.5-0.4c-0.3-0.2-0.6-0.5-0.7-0.9c-0.1-0.3-0.1-1-0.1-2.2v-5.1
				h4.4v-3.6h-4.4V8h-2.7c-0.1,1-0.3,1.9-0.7,2.5c-0.3,0.7-0.8,1.2-1.3,1.7s-1.4,0.8-2.2,1.1v2.8h2.6v7
				C14.6,24.1,14.7,24.8,14.9,25.3z"/>
		</g>
	</g>
</g>
</svg>
