<?xml version="1.0" encoding="utf-8"?>
<!-- Generator: Adobe Illustrator 24.2.1, SVG Export Plug-In . SVG Version: 6.00 Build 0)  -->
<svg version="1.1" id="Layer_1" xmlns="http://www.w3.org/2000/svg" xmlns:xlink="http://www.w3.org/1999/xlink" x="0px" y="0px"
	 viewBox="0 0 36 36" style="enable-background:new 0 0 36 36;" xml:space="preserve">
<style type="text/css">
	.st0{fill-rule:evenodd;clip-rule:evenodd;fill:#00F7EF;}
	.st1{fill-rule:evenodd;clip-rule:evenodd;fill:#FFFFFF;}
	.st2{fill-rule:evenodd;clip-rule:evenodd;fill:#FF004F;}
</style>
<path d="M34,18c0,8.8-7.2,16-16,16C9.2,34,2,26.8,2,18C2,9.2,9.2,2,18,2C26.8,2,34,9.2,34,18z"/>
<g>
	<path class="st0" d="M11.4,25.8c-4.1-3.6-1.5-11.6,4.9-10.6V16C11,15.7,8.6,22.1,11.4,25.8z M23,12c0.7,0.5,1.6,0.9,2.8,1v0.7
		C24.4,13.4,23.5,12.7,23,12z M21.3,8.1c0,0.3,0,0.6,0.1,0.8h-2.5v12.6c0,0.6-0.1,1.1-0.2,1.6c-1,2.3-3.9,2-4.8,0.4
		c1.2,0.8,3.2,0.6,4-1.2c0.1-0.5,0.2-1,0.2-1.6V8.1H21.3z"/>
	<path class="st1" d="M22,9L22,9c0,0.3,0.1,4.5,4.5,4.8c0,3.9,0,0,0,3.3c-0.3,0-2.9-0.2-4.5-1.6l0,6.3c0,2.9-1.6,5.7-4.6,6.3
		c-0.8,0.2-1.6,0.2-2.9-0.1c-7.3-2.2-4.9-13,2.5-11.9c0,3.5,0,0,0,3.5c-3-0.4-4,2.1-3.2,3.9c0.7,1.6,3.7,2,4.8-0.3
		c0.1-0.5,0.2-1,0.2-1.6V9H22z"/>
	<path class="st2" d="M16.3,16c0.2,0,0.5,0,0.8,0.1c0,3.5,0,0,0,3.5c-3-0.4-4,2.1-3.2,3.9c0,0,0,0.1,0,0.1c-0.4-0.2-0.6-0.5-0.8-0.9
		c-0.8-1.8,0.2-4.3,3.2-3.9C16.3,15.5,16.3,18.2,16.3,16z M25.8,13.7c0.2,0,0.5,0.1,0.8,0.1c0,3.9,0,0,0,3.3c-0.3,0-2.9-0.2-4.5-1.6
		l0,6.3c0,2.9-1.6,5.7-4.6,6.3c-0.8,0.2-1.6,0.2-2.9-0.1c-1.4-0.4-2.5-1.2-3.2-2.1c0.6,0.6,1.4,1,2.4,1.3c1.3,0.3,2,0.3,2.9,0.1
		c3-0.6,4.6-3.4,4.6-6.3l0-6.3c1.6,1.4,4.2,1.6,4.5,1.6C25.8,13.2,25.8,16.3,25.8,13.7z M22,9L22,9c0,0.2,0,1.7,0.9,3
		c-1.1-0.9-1.5-2.2-1.6-3H22z"/>
</g>
</svg>
