<?xml version="1.0" encoding="utf-8"?>
<svg version="1.1" id="Layer_1" xmlns="http://www.w3.org/2000/svg" xmlns:xlink="http://www.w3.org/1999/xlink" x="0px" y="0px"
	 viewBox="0 0 36 36" style="enable-background:new 0 0 36 36;" xml:space="preserve">
<style type="text/css">
	.st0{fill:#00B2DE;}
	.st1{fill:#FFFFFF;}
</style>
<g id="Layer_1_1_vim">
	<g>
		<path class="st0" d="M34,18c0,8.8-7.2,16-16,16S2,26.8,2,18S9.2,2,18,2S34,9.2,34,18z"/>
		<g>
			<path class="st1" d="M19,20.3c-0.6,0-1-1.4-1.6-4C16.7,13.7,16.7,9,14,9.5C11.4,10,8,14,8,14l0.8,1.1c0,0,1.7-1.3,2.2-0.7
				c0.6,0.7,2.7,8.6,3.4,10c0.6,1.3,2.3,3,4.2,1.8s8.1-6.5,9.2-12.8s-7.5-4.9-8.4,0.5c2.3-1.4,3.5,0.6,2.3,2.7
				C20.6,18.9,19.6,20.3,19,20.3z"/>
		</g>
	</g>
</g>
</svg>
