<?xml version="1.0" encoding="utf-8"?>
<svg version="1.1" id="Layer_1" xmlns="http://www.w3.org/2000/svg" xmlns:xlink="http://www.w3.org/1999/xlink" x="0px" y="0px"
	 viewBox="0 0 36 36" style="enable-background:new 0 0 36 36;" xml:space="preserve">
<style type="text/css">
	.st0{fill:#FF312E;}
	.st1{fill:#FFFFFF;}
</style>
<g id="Layer_1_1_yt">
	<g>
		<path class="st0" d="M34,18c0,8.8-7.2,16-16,16S2,26.8,2,18S9.2,2,18,2S34,9.2,34,18z"/>
		<g>
			<g id="Lozenge_9_">
				<g>
					<path class="st1" d="M27.8,13.8c0,0-0.2-1.4-0.8-2.1c-0.8-0.8-1.6-0.8-2-0.9c-2.8-0.2-7-0.2-7-0.2l0,0c0,0-4.2,0-7,0.2
						c-0.4,0-1.2,0.1-2,0.9c-0.6,0.6-0.8,2.1-0.8,2.1S8,15.5,8,17.2v1.6c0,1.7,0.2,3.4,0.2,3.4s0.2,1.4,0.8,2.1
						c0.8,0.8,1.8,0.8,2.2,0.9c1.6,0.2,6.8,0.2,6.8,0.2s4.2,0,7-0.2c0.4,0,1.2-0.1,2-0.9c0.6-0.6,0.8-2.1,0.8-2.1s0.2-1.7,0.2-3.4
						v-1.6C28,15.5,27.8,13.8,27.8,13.8z M15.9,20.7v-5.9l5.4,2.9L15.9,20.7z"/>
				</g>
			</g>
		</g>
	</g>
</g>
</svg>
