<?xml version="1.0" encoding="utf-8"?>
<!-- Generator: Adobe Illustrator 24.2.1, SVG Export Plug-In . SVG Version: 6.00 Build 0)  -->
<svg version="1.1" id="Layer_1" xmlns="http://www.w3.org/2000/svg" xmlns:xlink="http://www.w3.org/1999/xlink" x="0px" y="0px"
	 viewBox="0 0 160 40" style="enable-background:new 0 0 160 40;" xml:space="preserve">
<style type="text/css">
	.st0{fill:#808080;}
</style>
<g>
	<rect x="48.9" y="31.5" class="st0" width="2" height="11.4"/>
	<rect x="44.9" y="2" class="st0" width="2" height="41"/>
	<rect x="32.9" y="2" class="st0" width="2" height="41"/>
	<rect x="40.9" y="2" class="st0" width="2" height="41"/>
	<rect x="52.9" y="31.5" class="st0" width="2" height="11.4"/>
	<rect x="36.9" y="2" class="st0" width="2" height="41"/>
	<polygon class="st0" points="64.9,42.9 66.9,42.9 66.9,28 64.9,30 	"/>
	<polygon class="st0" points="70.9,23.8 68.9,25.9 68.9,42.9 70.9,42.9 	"/>
	<polygon class="st0" points="74.9,19.7 72.9,21.8 72.9,42.9 74.9,42.9 	"/>
	<rect x="60.9" y="31.5" class="st0" width="2" height="11.4"/>
	<rect x="56.9" y="31.5" class="st0" width="2" height="11.4"/>
	<polygon class="st0" points="2.9,26.4 0.9,29.2 0.9,42.9 2.9,42.9 	"/>
	<polygon class="st0" points="6.9,20.6 4.9,23.5 4.9,42.9 6.9,42.9 	"/>
	<polygon class="st0" points="10.9,14.8 8.9,17.7 8.9,42.9 10.9,42.9 	"/>
	<polygon class="st0" points="14.9,9.1 12.9,12 12.9,42.9 14.9,42.9 	"/>
	<rect x="20.9" y="2" class="st0" width="2" height="41"/>
	<rect x="24.9" y="2" class="st0" width="2" height="41"/>
	<rect x="28.9" y="2" class="st0" width="2" height="41"/>
	<polygon class="st0" points="18.9,3.3 16.9,6.2 16.9,42.9 18.9,42.9 	"/>
	<polygon class="st0" points="82.9,11.5 80.9,13.6 80.9,42.9 82.9,42.9 	"/>
	<rect x="132.9" y="1.9" class="st0" width="2" height="41"/>
	<rect x="136.9" y="1.9" class="st0" width="2" height="41"/>
	<polygon class="st0" points="142.9,3.9 141.6,1.9 140.9,1.9 140.9,42.9 142.9,42.9 	"/>
	<rect x="128.9" y="1.9" class="st0" width="2" height="41"/>
	<rect x="120.9" y="1.9" class="st0" width="2" height="41"/>
	<rect x="124.9" y="1.9" class="st0" width="2" height="41"/>
	<polygon class="st0" points="146.9,10 144.9,7 144.9,42.9 146.9,42.9 	"/>
	<polygon class="st0" points="158.9,28.5 156.9,25.4 156.9,42.9 158.9,42.9 	"/>
	<polygon class="st0" points="154.9,22.3 152.9,19.2 152.9,42.9 154.9,42.9 	"/>
	<polygon class="st0" points="150.9,16.2 148.9,13.1 148.9,42.9 150.9,42.9 	"/>
	<polygon class="st0" points="90.9,3.3 88.9,5.3 88.9,42.9 90.9,42.9 	"/>
	<rect x="96.9" y="1.9" class="st0" width="2" height="41"/>
	<polygon class="st0" points="78.9,15.6 76.9,17.7 76.9,42.9 78.9,42.9 	"/>
	<rect x="92.9" y="1.9" class="st0" width="2" height="41"/>
	<polygon class="st0" points="86.9,7.4 84.9,9.5 84.9,42.9 86.9,42.9 	"/>
	<rect x="116.9" y="1.9" class="st0" width="2" height="41"/>
	<rect x="108.9" y="1.9" class="st0" width="2" height="41"/>
	<rect x="112.9" y="1.9" class="st0" width="2" height="41"/>
	<rect x="104.9" y="1.9" class="st0" width="2" height="41"/>
	<rect x="100.9" y="1.9" class="st0" width="2" height="41"/>
</g>
</svg>
