<?xml version="1.0" encoding="utf-8"?>
<!-- Generator: Adobe Illustrator 23.1.1, SVG Export Plug-In . SVG Version: 6.00 Build 0)  -->
<svg version="1.1" id="Layer_1" xmlns="http://www.w3.org/2000/svg" xmlns:xlink="http://www.w3.org/1999/xlink" x="0px" y="0px"
	 viewBox="0 0 36 36" style="enable-background:new 0 0 36 36;" xml:space="preserve">
<style type="text/css">
	.st0{fill:#0092C5;}
	.st1{display:none;}
	.st2{display:inline;opacity:0.7;fill:#FFFFFF;enable-background:new    ;}
	.st3{display:inline;}
</style>
<g id="BG">
</g>
<g id="Slider_BG">
</g>
<g>
	<path class="st0" d="M17.9,18.3c-0.2,0-0.4-0.1-0.6-0.2l-13-10C4,7.8,3.8,7.4,4,7c0.1-0.4,0.5-0.7,0.9-0.7h26
		c0.4,0,0.8,0.3,0.9,0.7c0.1,0.4,0,0.9-0.3,1.1l-13,10C18.3,18.2,18.1,18.3,17.9,18.3z M7.8,8.3L17.9,16L28,8.3H7.8z"/>
	<rect x="16.9" y="17.3" class="st0" width="2" height="13"/>
</g>
<g id="Layer_7">
</g>
<g id="Screen" class="st1">
	<rect x="-1014.1" y="-940.7" class="st2" width="1400" height="1076"/>
</g>
<g id="specctr" class="st1">
	<g id="Dimensions" class="st3">
	</g>
	<g id="Text_Properties" class="st3">
	</g>
	<g id="Spacing" class="st3">
	</g>
	<g id="Object_Properties" class="st3">
	</g>
</g>
</svg>
